<?xml version="1.0" encoding="UTF-8"?>
<svg width="17px" height="20px" viewBox="0 0 17 20" version="1.1" xmlns="http://www.w3.org/2000/svg" xmlns:xlink="http://www.w3.org/1999/xlink">
    <!-- Generator: Sketch 49 (51002) - http://www.bohemiancoding.com/sketch -->
    <title>当前位置</title>
    <desc>Created with Sketch.</desc>
    <defs></defs>
    <g id="Page-1" stroke="none" stroke-width="1" fill="none" fill-rule="evenodd">
        <g id="咔咔物业-首页" transform="translate(-14.000000, -67.000000)" fill="#FF7E5B" fill-rule="nonzero">
            <g id="当前位置" transform="translate(14.968750, 67.551739)">
                <path d="M12.1324725,12.0965414 C13.0891364,11.1323919 13.6790043,9.80444054 13.6790043,8.33875357 C13.6790043,5.39091123 11.2895902,3.00149713 8.34174782,3.00149713 C5.39390548,3.00149713 3.00598851,5.39240836 3.00598851,8.3402507 C3.00598851,9.86582274 3.64526158,11.240185 4.67079332,12.2133173 L7.71445176,15.1911022 C7.87464431,15.3512947 8.09621906,15.4501051 8.34174782,15.4501051 C8.58727659,15.4501051 8.80885133,15.3512947 8.96904388,15.1911022 L12.0141995,12.2118202 C12.0546219,12.174392 12.0935472,12.1369638 12.1324725,12.0965414 Z M8.34324495,5.69782219 C9.80294342,5.69782219 10.9856735,6.88055223 10.9856735,8.3402507 C10.9856735,9.79994916 9.80294342,10.9826792 8.34324495,10.9826792 C6.88354648,10.9826792 5.70081644,9.79994916 5.70081644,8.3402507 C5.70081644,6.88055223 6.88354648,5.69782219 8.34324495,5.69782219 Z" id="Shape"></path>
            </g>
        </g>
    </g>
</svg>