<?xml version="1.0" encoding="UTF-8"?>
<svg width="27px" height="27px" viewBox="0 0 27 27" version="1.1" xmlns="http://www.w3.org/2000/svg" xmlns:xlink="http://www.w3.org/1999/xlink">
    <!-- Generator: Sketch 49 (51002) - http://www.bohemiancoding.com/sketch -->
    <title>商铺</title>
    <desc>Created with Sketch.</desc>
    <defs></defs>
    <g id="Page-1" stroke="none" stroke-width="1" fill="none" fill-rule="evenodd">
        <g id="咔咔物业-首页" transform="translate(-128.000000, -412.000000)" fill="#FF9707" fill-rule="nonzero">
            <g id="Group-16" transform="translate(127.000000, 412.000000)">
                <g id="商铺" transform="translate(1.723958, 0.406412)">
                    <g id="Group-6" transform="translate(1.444444, 2.843048)">
                        <path d="M18.9447494,12.6764881 C17.4627611,12.6764881 16.1481827,11.9547049 15.3330892,10.8459582 C14.5152512,11.9547049 13.2006728,12.6764881 11.721429,12.6764881 C10.2421852,12.6764881 8.92760679,11.9547049 8.10976885,10.8459582 C7.93687022,11.0819785 7.74201622,11.2987879 7.52520683,11.4991308 C6.60308083,12.344413 5.35436853,12.767054 4.09742297,12.6600216 C1.80583008,12.4596787 0.0109776905,10.4452725 0.0109776905,8.07409135 C0.0109776905,7.48952933 0.148198822,6.90222289 0.411663393,6.37803817 L2.41783633,2.36294788 C3.1423639,0.916637156 4.59416347,0.0192109584 6.21062839,0.0192109584 L17.2157631,0.0192109584 C18.832228,0.0192109584 20.286772,0.916637156 21.0085552,2.36294788 L23.0202169,6.38901586 C23.2781927,6.90222289 23.4154138,7.47855164 23.4209027,8.05213597 L23.4209027,8.18386826 C23.4263915,10.6648263 21.4147297,12.6764881 18.9447494,12.6764881 Z" id="Shape"></path>
                        <path d="M18.9447494,14.2078759 C17.4627611,14.2078759 16.1481827,13.4860928 15.3330892,12.377346 C14.5152512,13.4860928 13.2006728,14.2078759 11.721429,14.2078759 C10.2421852,14.2078759 8.92760679,13.4860928 8.10976885,12.377346 C7.93687022,12.6133664 7.74201622,12.8301758 7.52520683,13.0305186 C6.60308083,13.8758008 5.35436853,14.2984419 4.09742297,14.1914094 C3.13961948,14.1090767 2.26963751,13.7029021 1.58078743,13.0908959 L1.58078743,17.805814 C1.58078743,20.0699626 3.42229501,21.9114702 5.68644367,21.9114702 L17.7536699,21.9114702 C20.0178186,21.9114702 21.8593262,20.0699626 21.8593262,17.805814 L21.8593262,13.123829 C21.0744213,13.7989569 20.0562405,14.2078759 18.9447494,14.2078759 Z" id="Shape"></path>
                    </g>
                </g>
            </g>
        </g>
    </g>
</svg>