<?xml version="1.0" encoding="UTF-8"?>
<svg width="31px" height="29px" viewBox="0 0 31 29" version="1.1" xmlns="http://www.w3.org/2000/svg" xmlns:xlink="http://www.w3.org/1999/xlink">
    <!-- Generator: Sketch 49 (51002) - http://www.bohemiancoding.com/sketch -->
    <title>维修报装</title>
    <desc>Created with Sketch.</desc>
    <defs></defs>
    <g id="Page-1" stroke="none" stroke-width="1" fill="none" fill-rule="evenodd">
        <g id="咔咔物业-首页" transform="translate(-216.000000, -410.000000)" fill="#52BAF6" fill-rule="nonzero">
            <g id="Group-12" transform="translate(202.166667, 410.000000)">
                <g id="维修报装" transform="translate(14.328125, 0.874674)">
                    <path d="M19.1216745,10.4129364 L18.3090672,9.56303167 C17.5026441,8.71959501 17.5026441,7.35224446 18.3090672,6.51010141 L20.732047,3.9772042 C18.5910679,3.19327382 16.1161405,3.68872817 14.4043467,5.48038427 C12.6937897,7.27204037 12.2163675,9.8592694 12.9671325,12.0985161 L12.1743147,12.927723 L8.26959428,8.84636924 L8.2213573,7.06764928 L5.03029656,6.66792239 L5.41124489,10.0054478 L7.11190711,10.0558988 L11.0153907,14.1385462 L4.79529595,20.6454272 C3.99010968,21.4862766 3.99010968,22.8536272 4.79529595,23.6944766 L5.60790328,24.5456749 C6.41308954,25.3891116 7.72043497,25.3891116 8.52685807,24.5456749 L14.745716,18.0413812 L16.6133523,19.9947391 C16.4228781,20.6622442 16.5700627,21.4073661 17.0746956,21.9325736 L19.7128865,24.6918534 C20.4401515,25.455086 21.6213387,25.455086 22.3510774,24.6918534 C23.0808161,23.9312081 23.0808161,22.6958062 22.3510774,21.9325736 L19.7128865,19.1732939 C19.173622,18.6118652 18.3931726,18.468274 17.726513,18.733465 L15.9058768,16.8292644 L16.6986946,16.0000575 C18.8409106,16.7826943 21.3146011,16.2872399 23.0276318,14.4968774 C24.7394256,12.7052213 25.2143742,10.1179923 24.4648459,7.87874558 L22.0418661,10.4129364 C21.2342062,11.2563731 19.9280976,11.2563731 19.1216745,10.4129364 Z M7.32588134,23.2934561 C6.95977515,23.6776596 6.36361574,23.6776596 5.99503586,23.2934561 C5.62769281,22.9092526 5.62769281,22.2857304 5.99503586,21.9015269 C6.3623789,21.5173234 6.95853831,21.5173234 7.32588134,21.9015269 C7.69446122,22.2857304 7.69446122,22.9092526 7.32588134,23.2934561 Z" id="Shape"></path>
                </g>
            </g>
        </g>
    </g>
</svg>