<?xml version="1.0" encoding="UTF-8"?>
<svg width="31px" height="23px" viewBox="0 0 31 23" version="1.1" xmlns="http://www.w3.org/2000/svg" xmlns:xlink="http://www.w3.org/1999/xlink">
    <!-- Generator: Sketch 49 (51002) - http://www.bohemiancoding.com/sketch -->
    <title>宽带</title>
    <desc>Created with Sketch.</desc>
    <defs></defs>
    <g id="Page-1" stroke="none" stroke-width="1" fill="none" fill-rule="evenodd">
        <g id="咔咔物业-首页" transform="translate(-32.000000, -415.000000)" fill-rule="nonzero">
            <g id="Group-18" transform="translate(18.500000, 415.000000)">
                <g id="Group-3-Copy-2" transform="translate(14.242188, 0.406412)">
                    <g id="Group-9">
                        <g id="宽带" transform="translate(0.155971, 0.000000)">
                            <path d="M23.5568755,8.12899616 L20.7503291,8.12899616 L20.7503291,0.95671076 C20.7503291,0.439058857 20.3324655,0.0211952727 19.8148136,0.0211952727 C19.2971617,0.0211952727 18.8792981,0.439058857 18.8792981,0.95671076 L18.8792981,8.12899616 L6.71759679,8.12899616 C4.48171477,8.12899616 2.66369634,9.94701459 2.66369634,12.1828966 L2.66369634,15.9249585 C2.66369634,18.1608406 4.48171477,19.978859 6.71759679,19.978859 L23.5568755,19.978859 C25.7927576,19.978859 27.610776,18.1608406 27.610776,15.9249585 L27.610776,12.1828966 C27.610776,9.94701459 25.7927576,8.12899616 23.5568755,8.12899616 Z" id="Shape" fill="#6F41FF"></path>
                            <path d="M6.56167754,14.3657661 C6.56167754,14.882437 6.98052209,15.3012816 7.49719302,15.3012816 C8.01386396,15.3012816 8.43270851,14.882437 8.43270851,14.3657661 C8.43270851,13.8490951 8.01386396,13.4302506 7.49719302,13.4302506 C6.98052209,13.4302506 6.56167754,13.8490951 6.56167754,14.3657661 Z" id="Shape" fill="#FFFFFF"></path>
                            <path d="M10.3037395,14.3657661 C10.3037395,14.882437 10.722584,15.3012816 11.239255,15.3012816 C11.7559259,15.3012816 12.1747705,14.882437 12.1747705,14.3657661 C12.1747705,13.8490951 11.7559259,13.4302506 11.239255,13.4302506 C10.722584,13.4302506 10.3037395,13.8490951 10.3037395,14.3657661 Z" id="Shape" fill="#FFFFFF"></path>
                        </g>
                    </g>
                </g>
            </g>
        </g>
    </g>
</svg>