<?xml version="1.0" encoding="UTF-8"?>
<svg width="26px" height="30px" viewBox="0 0 26 30" version="1.1" xmlns="http://www.w3.org/2000/svg" xmlns:xlink="http://www.w3.org/1999/xlink">
    <!-- Generator: Sketch 49 (51002) - http://www.bohemiancoding.com/sketch -->
    <title>icon-物业费</title>
    <desc>Created with Sketch.</desc>
    <defs></defs>
    <g id="Page-1" stroke="none" stroke-width="1" fill="none" fill-rule="evenodd">
        <g id="咔咔物业-首页" transform="translate(-316.000000, -345.000000)">
            <g id="Group-7" transform="translate(301.000000, 345.000000)">
                <g id="Group-3-Copy-2" transform="translate(15.000000, 0.319838)">
                    <g id="icon-物业费" transform="translate(0.000000, 0.485830)">
                        <path d="M23.5849196,12.2189482 C23.195913,11.8407409 15.8987221,4.75515014 14.6223748,3.50224849 C14.1121386,2.99870735 13.5364652,2.74396119 12.9169018,2.74396119 C11.8912221,2.74396119 11.1653072,3.45017571 11.0953809,3.52123067 L3.22695422,11.1977576 C2.8141685,11.5956654 2.13806896,12.2498328 2.07783898,12.3037525 C1.79669731,12.549931 1.48279854,13.1546165 1.77063528,13.8121442 C2.0413624,14.4305789 2.65053685,14.6042659 2.97631233,14.6079341 L3.71710522,14.6079341 C3.73049537,14.6079341 3.74237207,14.6087293 3.74834889,14.6109354 C3.75430006,14.6250694 3.75876343,14.6428973 3.76173903,14.6581856 L3.76173903,19.8311409 C3.76173903,22.0520575 5.14664388,23.2569906 5.34003139,23.4132089 C6.23034754,24.1926844 7.29840368,24.6032641 8.42966538,24.6032641 L17.3356484,24.5943373 C18.4587786,24.5943373 19.5610539,24.1874771 20.4424177,23.4459147 C21.9991627,22.1383751 22.042283,20.2447218 22.0430269,20.1554542 L22.0430269,14.6295328 C22.0430269,14.6258133 22.0430269,14.6210164 22.0430269,14.6184 C22.0541854,14.6138853 22.0630865,14.6109354 22.0690633,14.6079341 L22.7548079,14.6079341 C23.3067023,14.6079341 23.7715608,14.2851855 23.995448,13.7429618 C24.2751275,13.0601672 23.8809392,12.4748231 23.5849196,12.2189482 Z" id="Shape" fill="#6265FF" fill-rule="nonzero"></path>
                        <path d="M10.6176519,8.48421053 L7.16556278,11.9362996" id="Line" stroke="#FFFFFF" stroke-linecap="round"></path>
                    </g>
                </g>
            </g>
        </g>
    </g>
</svg>