<?xml version="1.0" encoding="UTF-8"?>
<svg width="26px" height="26px" viewBox="0 0 26 26" version="1.1" xmlns="http://www.w3.org/2000/svg" xmlns:xlink="http://www.w3.org/1999/xlink">
    <!-- Generator: Sketch 49 (51002) - http://www.bohemiancoding.com/sketch -->
    <title>停车</title>
    <desc>Created with Sketch.</desc>
    <defs></defs>
    <g id="Page-1" stroke="none" stroke-width="1" fill="none" fill-rule="evenodd">
        <g id="咔咔物业-首页" transform="translate(-316.000000, -413.000000)" fill="#60B27F" fill-rule="nonzero">
            <g id="Group-8" transform="translate(301.000000, 413.000000)">
                <g id="停车" transform="translate(15.000000, 0.906412)">
                    <path d="M10.6499187,1.45023033 C12.5226585,1.18623946 14.0691709,1.19537641 15.7808899,1.45023033 C16.9521895,1.69843485 18.1392753,1.89267874 19.2914638,2.21228063 C20.1439986,2.44886065 20.7607905,3.02829155 21.0654193,3.91278175 C21.5493906,5.31028058 22.056587,6.69950353 22.5903571,8.07791523 C22.6808416,8.308683 22.9763812,8.64820917 23.1415639,8.62952866 C24.2639018,8.50295081 24.7918357,9.12718147 25.1346866,10.0511136 C25.2168713,10.3341677 25.1712104,10.6172457 25.1346866,10.8048641 C24.6673388,10.9345753 24.1991538,11.0632341 23.7691192,11.1819427 C23.8297293,11.6684015 23.9393009,12.162323 23.9418124,12.6562684 C23.9608995,14.9091962 23.9741983,17.1629851 23.9293507,19.4159129 C23.9218641,19.8177234 23.689446,20.4436284 23.5275641,20.5449002 C23.3748192,20.8080539 19.9680047,20.7955684 19.7031767,20.6129729 C18.8182798,20.0377038 19.3628373,19.0722727 19.0789221,18.289437 C15.177349,18.289437 11.2741254,18.289437 7.50623399,18.289437 C7.2820917,19.1179096 7.14845783,20.5092135 6.87865472,20.6129729 C6.28927363,20.8396027 3.13147689,20.8479025 2.95548298,20.6129729 C2.71641541,20.4436284 2.5537203,19.7604381 2.52217151,19.3221037 C2.45658639,18.3732961 2.49476067,17.4170258 2.50389762,16.4640085 C2.52133436,14.6942148 2.54788413,12.9243733 2.57113313,11.1429313 C2.23909351,11.0557475 1.76758386,10.9304374 1.29523705,10.8048641 C1.26950051,10.6355196 1.23546418,10.4280008 1.29523705,10.2018015 C1.62313873,9.22682684 2.10294818,8.47388957 3.33234627,8.63079635 C3.48092933,8.64988348 3.75487039,8.33236253 3.83621794,8.11943812 C4.25625452,7.01826826 4.70700272,5.91879664 5.00668032,4.78234668 C5.50973875,2.87140869 6.88858098,2.10270899 8.6492616,1.76401997 C9.3117622,1.63617443 9.98332799,1.55315257 10.6499187,1.45023033 Z M5.36536538,8.99684838 C10.6847922,10.0984249 15.7833775,10.124568 21.0131569,8.99684838 C20.5740093,7.6420923 20.1332113,6.43924398 19.8011717,5.2081955 C19.5156061,4.15060555 18.8324158,3.63013428 17.8146744,3.58488007 C15.3342797,3.47322751 12.8530477,3.38441731 10.3718397,3.3657368 C9.55499162,3.35949401 8.72570581,3.55292467 7.92380694,3.7442744 C7.59341771,3.82354102 7.15843194,4.07550078 7.0455356,4.3589854 C6.45366697,5.83907556 5.94895814,7.35571351 5.36536538,8.99684838 Z M6.38643146,14.754777 C6.38808185,14.7257397 6.38475715,14.7830011 6.38643146,14.754777 C6.81228028,14.754777 7.25970378,14.7398278 7.66397792,14.6451814 C7.95784327,14.5763195 8.33056862,14.3380651 8.42354067,14.0848616 C8.48912579,13.9055669 8.20688494,13.4448446 7.9736057,13.3369233 C7.00152516,12.8861512 6.003732,12.4769259 4.98517739,12.1423987 C4.47798101,11.9755179 3.91266216,12.0070666 3.7491299,12.7309188 C3.51087556,13.7893219 3.73334354,14.3795402 4.52445508,14.5447228 C5.1329233,14.6717791 5.76466443,14.6891919 6.38643146,14.754777 Z M20.1697351,14.7514762 C20.7192916,14.6850539 21.3999943,14.6609917 22.0524491,14.50906 C22.9439953,14.3040288 22.7555636,13.5510915 22.7348022,12.9135621 C22.7173654,12.3681914 22.3786764,11.958129 21.8872425,12.110826 C20.6594948,12.491899 19.440884,12.9409729 18.2861602,13.5021299 C17.7557148,13.7602846 17.9458208,14.4725122 18.5493139,14.6045435 C19.0332852,14.7099294 19.5421798,14.6999792 20.1697351,14.7514762 Z" id="Shape"></path>
                </g>
            </g>
        </g>
    </g>
</svg>