<?xml version="1.0" encoding="UTF-8"?>
<svg width="24px" height="31px" viewBox="0 0 24 31" version="1.1" xmlns="http://www.w3.org/2000/svg" xmlns:xlink="http://www.w3.org/1999/xlink">
    <!-- Generator: Sketch 49 (51002) - http://www.bohemiancoding.com/sketch -->
    <title>Group 3</title>
    <desc>Created with Sketch.</desc>
    <defs></defs>
    <g id="Page-1" stroke="none" stroke-width="1" fill="none" fill-rule="evenodd">
        <g id="咔咔物业-首页" transform="translate(-35.000000, -344.000000)">
            <g id="Group-17" transform="translate(18.500000, 344.000000)">
                <g id="Group-3" transform="translate(17.242188, 0.750000)">
                    <g id="缴水费" transform="translate(0.966387, 0.084334)">
                        <path d="M9.90915797,25.567106 C5.7706345,25.567106 2.32191464,22.2563056 2.32191464,18.1177821 C2.32191464,16.6003243 2.87370706,15.0828894 3.70140717,13.8413392 L9.90915797,3.49506493 L16.1169088,13.9792816 C16.9446318,15.2208317 17.4964013,16.6003243 17.4964013,18.2557245 C17.4964013,22.2563056 14.0476585,25.567106 9.90915797,25.567106 Z" id="Shape" fill="#41C2FF" fill-rule="nonzero"></path>
                        <path d="M15.013301,19.63524 C14.7373933,19.63524 14.3235432,19.9111476 14.3235432,20.1870324 C14.1856009,20.8767901 13.4958202,21.4285825 12.8060854,21.7044902 C12.5301777,21.7044902 12.254293,21.9803979 12.254293,22.394248 C12.254293,22.808098 12.5302007,23.0840057 12.9440507,23.0840057 C13.4958431,23.0840057 14.1856009,22.6701556 14.7373933,22.1183632 C15.2891857,21.5665708 15.7030358,20.8768131 15.7030358,20.3250206 C15.7030358,19.9111706 15.4271281,19.6352629 15.013278,19.6352629 L15.013301,19.63524 Z" id="Path" fill="#FFFFFF"></path>
                    </g>
                </g>
            </g>
        </g>
    </g>
</svg>