<?xml version="1.0" encoding="UTF-8"?>
<svg width="28px" height="31px" viewBox="0 0 28 31" version="1.1" xmlns="http://www.w3.org/2000/svg" xmlns:xlink="http://www.w3.org/1999/xlink">
    <!-- Generator: Sketch 49 (51002) - http://www.bohemiancoding.com/sketch -->
    <title>燃气</title>
    <desc>Created with Sketch.</desc>
    <defs></defs>
    <g id="Page-1" stroke="none" stroke-width="1" fill="none" fill-rule="evenodd">
        <g id="咔咔物业-首页" transform="translate(-217.000000, -341.000000)">
            <g id="Group-10" transform="translate(202.166667, 341.000000)">
                <g id="Group-4" transform="translate(15.779948, 0.750000)">
                    <g id="燃气" transform="translate(0.000000, 0.810440)">
                        <path d="M16.9254081,14.749164 C14.6405434,12.1761183 14.6405434,9.08846344 14.6405434,4.71428571 C7.52993159,7.54463602 9.3079062,15.2637732 9.0544612,17.8368189 C7.27648661,16.2929915 6.76831006,12.6907274 6.76831006,12.6907274 C4.738177,13.7199457 3.72182393,16.2929915 3.72182393,18.351428 C3.72182393,23.4975195 8.03810812,27.8716972 13.3707454,27.8716972 C18.7033827,27.8716972 23.0196669,23.7548241 23.0196669,18.351428 C23.0196669,15.2637732 20.7348022,13.7199457 20.7348022,9.60307259 C17.4335846,10.6322909 16.9266946,13.2053366 16.9266946,14.749164 L16.9254081,14.749164 Z" id="Shape" fill="#FF4242" fill-rule="nonzero"></path>
                        <path d="M15.3669468,24.5238095 C17.6194022,24.5238095 19.4453782,22.6978336 19.4453782,20.4453782" id="Oval-2" stroke="#FFFFFF" stroke-linecap="round"></path>
                    </g>
                </g>
            </g>
        </g>
    </g>
</svg>