<?xml version="1.0" encoding="UTF-8"?>
<svg width="28px" height="26px" viewBox="0 0 28 26" version="1.1" xmlns="http://www.w3.org/2000/svg" xmlns:xlink="http://www.w3.org/1999/xlink">
    <!-- Generator: Sketch 49 (51002) - http://www.bohemiancoding.com/sketch -->
    <title>家政</title>
    <desc>Created with Sketch.</desc>
    <defs></defs>
    <g id="Page-1" stroke="none" stroke-width="1" fill="none" fill-rule="evenodd">
        <g id="咔咔物业-首页" transform="translate(-128.000000, -536.000000)" fill="#FF5ABF" fill-rule="nonzero">
            <g id="Group-13" transform="translate(113.000000, 536.139999)">
                <g id="家政" transform="translate(15.156250, 0.749349)">
                    <path d="M26.4527072,21.1598103 C26.4527072,21.8904051 25.8843751,22.4847945 25.1858419,22.4847945 L19.0003589,22.4847945 C18.3018257,22.4847945 17.7334936,21.8904051 17.7334936,21.1598103 C17.7334936,20.4291872 18.3018257,19.8347695 19.0003589,19.8347695 L20.9179041,19.8347695 L16.3946587,7.47017801 L16.3862586,7.43988182 C16.3533087,7.32090759 16.2669235,7.22571119 16.1550942,7.18521235 L5.42195134,3.29743591 C5.33112226,3.26453238 5.2371228,3.24786802 5.14255433,3.24786802 C5.01205525,3.24786802 4.88448266,3.27904279 4.76341333,3.34054209 C4.55465815,3.44653628 4.39852533,3.62927709 4.32373766,3.85515242 C4.24894998,4.08099941 4.26358235,4.32560794 4.36495218,4.54397299 C4.4662949,4.76228137 4.64104337,4.92558044 4.85697924,5.00382908 L9.88975647,6.82678758 C11.0526507,7.24801532 11.7156326,8.51013979 11.4319272,9.76262843 L11.4291091,9.77461656 L11.0364196,11.4009473 L11.443335,11.48186 L11.409816,11.477949 C13.1676788,11.9945431 14.4192614,12.7970383 15.2589157,13.5155599 C17.0159926,15.0191754 18.0237565,17.0572681 18.0237565,19.1073489 C18.0237565,20.1501164 17.4863962,20.6202885 17.0356108,20.831115 C16.5349127,21.0652658 15.9288073,21.0848776 15.3999555,21.0848776 L9.84439605,21.0848775 C10.0447782,20.7595264 10.2054363,20.4049276 10.3194875,20.0286199 C10.4476562,19.60572 10.5169974,19.1554147 10.5169974,18.6881333 C10.5169974,16.2405176 8.6198833,14.2563006 6.27965221,14.2563006 C5.19230439,14.2563006 4.20079862,14.6848402 3.45061859,15.3889931 C3.02904369,15.7847142 2.6838823,16.267498 2.44071396,16.8103073 L2.44071393,13.7837762 C2.44071393,13.0436873 2.66624212,12.343162 3.07578596,11.8112639 C3.51107193,11.245867 4.09951005,10.9345162 4.73271239,10.9345162 L7.39718603,10.9345162 C7.97459569,10.9345162 8.51954316,10.9643022 9.03471103,11.0178378 L9.46465888,9.2689619 C9.50470823,9.07964607 9.40323002,8.88965005 9.22769574,8.82605353 L4.19494565,7.00309504 C3.46749999,6.7396116 2.88125671,6.19462005 2.54419731,5.46853146 C2.2071379,4.74244286 2.16023302,3.92356685 2.41218079,3.16273257 C2.66377629,2.40286187 3.18498681,1.7900227 3.8798348,1.43718106 C4.27924435,1.23437506 4.7038541,1.13152668 5.14184979,1.13152668 C5.46186517,1.13152668 5.77884571,1.18758459 6.08403906,1.29811329 L16.8171548,5.18588973 C17.5312688,5.4445269 18.0907673,6.0486655 18.3155368,6.80303809 L23.0838204,19.8347695 L25.185869,19.8347695 C25.8843751,19.8347695 26.4527072,20.4291589 26.4527072,21.1598103 Z M9.9096727,18.6881333 C9.9096727,20.7849763 8.28444973,22.4847945 6.27965218,22.4847945 C4.27485466,22.4847945 2.64963166,20.7849763 2.64963166,18.6881333 C2.64963166,16.5913187 4.27485463,14.8915006 6.27965218,14.8915006 C8.28444973,14.8915006 9.9096727,16.5913187 9.9096727,18.6881333 Z M7.92942503,18.6881333 C7.92942503,17.7351775 7.19078831,16.9626669 6.27965218,16.9626669 C5.36851606,16.9626669 4.62987933,17.7351775 4.62987933,18.6881333 C4.62987933,19.6410892 5.36851606,20.4136282 6.27965218,20.4136282 C7.19078831,20.4136282 7.92942503,19.6410892 7.92942503,18.6881333 Z" id="Shape"></path>
                </g>
            </g>
        </g>
    </g>
</svg>