<?xml version="1.0" encoding="UTF-8"?>
<svg width="27px" height="27px" viewBox="0 0 27 27" version="1.1" xmlns="http://www.w3.org/2000/svg" xmlns:xlink="http://www.w3.org/1999/xlink">
    <!-- Generator: Sketch 49 (51002) - http://www.bohemiancoding.com/sketch -->
    <title>公告 (2)</title>
    <desc>Created with Sketch.</desc>
    <defs></defs>
    <g id="Page-1" stroke="none" stroke-width="1" fill="none" fill-rule="evenodd">
        <g id="咔咔物业-首页" transform="translate(-217.000000, -534.000000)" fill="#FF9557" fill-rule="nonzero">
            <g id="Group-11" transform="translate(202.666667, 534.639999)">
                <g id="公告-(2)" transform="translate(15.000000, 0.749349)">
                    <path d="M20.7902838,1.16198013 C20.7902838,1.16198013 24.9884287,0.158189741 24.6680622,11.1656571 C24.6679564,11.1656571 25.114782,18.7455307 20.8298271,19.8133574 C20.8298271,19.8133574 17.6124872,15.6406577 6.52759969,15.1347421 L6.52471662,7.34866154 C6.52471662,7.34866154 15.8820531,7.00671154 20.7902838,1.16198013 Z M2.2722427,8.15891478 L4.96044358,8.15891478 L4.96044358,14.2379169 L2.2722427,14.2379169 L2.2722427,8.15891478 Z M11.0066472,16.9729877 C11.3792796,19.4457506 13.6587169,21.371203 13.9150207,21.778115 C14.7158047,22.6631698 14.4488944,23.3516721 14.4488944,23.3516721 C14.0694643,24.391435 11.5545396,24.2789681 11.5545396,24.2789681 C8.66029054,20.5416675 8.26686821,16.9729877 8.26686821,16.9729877 L11.0066472,16.9729877 Z" id="Shape"></path>
                </g>
            </g>
        </g>
    </g>
</svg>