<?xml version="1.0" encoding="UTF-8"?>
<svg width="27px" height="25px" viewBox="0 0 27 25" version="1.1" xmlns="http://www.w3.org/2000/svg" xmlns:xlink="http://www.w3.org/1999/xlink">
    <!-- Generator: Sketch 49 (51002) - http://www.bohemiancoding.com/sketch -->
    <title>快递</title>
    <desc>Created with Sketch.</desc>
    <defs></defs>
    <g id="Page-1" stroke="none" stroke-width="1" fill="none" fill-rule="evenodd">
        <g id="咔咔物业-首页" transform="translate(-34.000000, -538.000000)" fill="#CE9C62" fill-rule="nonzero">
            <g id="Group-14" transform="translate(18.500000, 538.639999)">
                <g id="快递" transform="translate(16.484375, 0.749349)">
                    <path d="M6.17333528,16.1926063 C7.40800233,16.1926063 8.46628838,17.2379738 8.46628838,18.5908023 C8.46628838,19.8821387 7.466796,20.9889984 6.17333528,20.9889984 C4.93866823,20.9889984 3.88038217,19.9436309 3.88038217,18.5908023 C3.88038217,17.2379738 4.93866823,16.1926063 6.17333528,16.1926063 Z M19.1667362,16.1926063 C20.4014033,16.1926063 21.4596893,17.2379738 21.4596893,18.5908023 C21.4596893,19.8821387 20.4601969,20.9889984 19.1667362,20.9889984 C17.9320692,20.9889984 16.8737831,19.9436309 16.8737831,18.5908023 C16.8737831,17.2379738 17.9320692,16.1926063 19.1667362,16.1926063 Z M18.0496565,12.1956128 L18.0496565,7.21474407 L20.4014033,7.21474407 C20.5777843,7.21474407 20.7541653,7.46071291 20.7541653,7.46071289 L22.75315,11.3962141 C22.929531,11.642183 23.105912,12.0111362 23.105912,12.257105 L18.0496565,12.257105 L18.0496565,12.1956128 Z M23.9878171,10.2278622 L21.871245,6.23086875 C21.4596893,5.6774389 21.165721,5.24699345 20.4601969,5.24699345 L17.1089578,5.24699345 L17.1089578,2.2338753 C17.1089578,1.68044545 16.6974021,1.25 16.1682591,1.25 L0.940698701,1.25 C0.411555684,1.25 0,1.68044545 0,2.2338753 L0,17.2379738 C0,17.7914037 0.411555684,18.2218491 0.940698701,18.2218491 L2.82209612,18.2218491 C3.05727081,16.5000673 4.46831886,15.1472387 6.17333528,15.1472387 C7.8783517,15.1472387 9.28939975,16.5000673 9.52457444,18.2218491 L16.1682591,18.2218491 C16.4034338,16.5000673 17.8144818,15.1472387 19.5194982,15.1472387 C21.2245146,15.1472387 22.6355627,16.5000673 22.8707374,18.2218491 L23.8114361,18.2218491 C24.3405791,18.2218491 24.7521348,17.7914037 24.7521348,17.2379738 L24.7521348,12.257105 C24.6933411,11.2732297 23.9878171,10.2278622 23.9878171,10.2278622 Z" id="Shape"></path>
                </g>
            </g>
        </g>
    </g>
</svg>