<?xml version="1.0" encoding="UTF-8"?>
<svg width="39px" height="26px" viewBox="0 0 39 26" version="1.1" xmlns="http://www.w3.org/2000/svg" xmlns:xlink="http://www.w3.org/1999/xlink">
    <!-- Generator: Sketch 49 (51002) - http://www.bohemiancoding.com/sketch -->
    <title>首页 copy</title>
    <desc>Created with Sketch.</desc>
    <defs>
        <linearGradient x1="100%" y1="-21.4666812%" x2="-7.12659941%" y2="79.6670841%" id="linearGradient-1">
            <stop stop-color="#FF8B55" offset="0%"></stop>
            <stop stop-color="#FF6657" offset="100%"></stop>
        </linearGradient>
    </defs>
    <g id="Page-1" stroke="none" stroke-width="1" fill="none" fill-rule="evenodd" opacity="0.987828351">
        <g id="咔咔物业-个人中心" transform="translate(-72.000000, -628.000000)" fill="#A0A0A0" fill-rule="nonzero">
            <g id="botton" transform="translate(-0.500000, 621.000000)">
                <g id="Group-2">
                    <g transform="translate(73.000000, 7.000000)">
                        <g id="首页-copy" transform="translate(0.500000, 0.000000)">
                            <path d="M28.6767901,8.96796633 L19.4066945,1.49485788 C18.6096396,0.852959672 17.3562995,0.852959672 16.5592446,1.49485788 L7.28337325,8.96796633 C6.96570642,9.2270812 6.91372458,9.69819915 7.16208228,10.0162038 C7.41043998,10.3400974 7.8609493,10.3930981 8.17861613,10.1398722 L8.46740415,9.89842427 L8.46740415,18.9321109 C8.46740415,20.2100184 9.7900533,21.1699212 10.9567569,21.1699212 L25.592534,21.1699212 C26.7419103,21.1699212 27.4927592,20.2689081 27.4927592,18.9321109 L27.4927592,9.93375812 L27.7584442,10.1398722 C27.8912867,10.2458738 28.0587837,10.2988745 28.2147293,10.2988745 C28.4284324,10.2988745 28.6479113,10.2046509 28.7923053,10.0162038 C29.0464388,9.69819915 28.9944569,9.2270812 28.6767901,8.96796633 Z M17.2523359,19.6800107 L17.2523359,15.5459507 C17.2523359,15.3398366 17.6162088,15.239724 17.9858574,15.239724 C18.3497304,15.239724 18.719379,15.3398366 18.719379,15.5459507 L18.719379,19.6800107 L17.2523359,19.6800107 Z" id="Shape"></path>
                        </g>
                    </g>
                </g>
            </g>
        </g>
    </g>
</svg>