<?xml version="1.0" encoding="UTF-8"?>
<svg width="22px" height="26px" viewBox="0 0 22 26" version="1.1" xmlns="http://www.w3.org/2000/svg" xmlns:xlink="http://www.w3.org/1999/xlink">
    <!-- Generator: Sketch 49 (51002) - http://www.bohemiancoding.com/sketch -->
    <title>我的</title>
    <desc>Created with Sketch.</desc>
    <defs>
        <linearGradient x1="100%" y1="-21.4666812%" x2="-7.12659941%" y2="79.6670841%" id="linearGradient-1">
            <stop stop-color="#FF8B55" offset="0%"></stop>
            <stop stop-color="#FF6657" offset="100%"></stop>
        </linearGradient>
    </defs>
    <g id="Page-1" stroke="none" stroke-width="1" fill="none" fill-rule="evenodd" opacity="0.987828351">
        <g id="咔咔物业-首页" transform="translate(-267.000000, -626.000000)" fill="#999999" fill-rule="nonzero">
            <g id="botton" transform="translate(-0.500000, 621.000000)">
                <g id="Group">
                    <g transform="translate(268.000000, 5.000000)">
                        <g id="我的" transform="translate(0.722222, 0.000000)">
                            <path d="M13.8692669,19.5283472 C17.1965483,18.4252822 19.6103671,15.2378258 19.6103671,11.482269 C19.6103671,6.81678523 15.8871964,3.02063466 11.3114053,3.02063466 C6.73561406,3.02063466 3.01240185,6.81678523 3.01240185,11.4823538 C3.01240185,15.2461734 5.43582072,18.4410874 8.77498799,19.5366948 C6.25274226,20.768236 5.69431654,23.6295864 5.68783336,23.6660276 C5.64029008,23.9279377 5.81055653,24.1794664 6.06784711,24.2279416 C6.09889154,24.2340858 6.12968661,24.236501 6.16010768,24.2362892 L6.16010768,24.2370942 L16.8488673,24.2370942 L16.8488673,24.2354417 C16.8822595,24.2340173 16.9153988,24.2288736 16.9476942,24.2201025 C17.2004133,24.1509067 17.3508562,23.8861152 17.2829491,23.6283576 C17.2726009,23.5917894 16.4829004,20.7483205 13.8692669,19.5283472 Z M11.310865,16.0169037 C9.04753065,16.0169037 8.17413071,13.6250932 8.13797455,13.5231428 C8.0493296,13.2724192 8.17658269,12.9952122 8.42323422,12.9044484 C8.66793249,12.8136845 8.94059984,12.9429658 9.02961882,13.1936894 C9.05767101,13.2703853 9.71932883,15.0497302 11.311239,15.0497302 C12.9206455,15.0497302 13.7111356,13.190808 13.7192396,13.1717399 C13.8208509,12.9264402 14.0988793,12.809998 14.3402529,12.9135586 C14.5811411,13.0167334 14.6946046,13.2992979 14.5938447,13.5450922 C14.5524106,13.6462376 13.5571187,16.0169037 11.310865,16.0169037 Z" id="Shape"></path>
                        </g>
                    </g>
                </g>
            </g>
        </g>
    </g>
</svg>