<?xml version="1.0" encoding="UTF-8"?>
<svg width="38px" height="26px" viewBox="0 0 38 26" version="1.1" xmlns="http://www.w3.org/2000/svg" xmlns:xlink="http://www.w3.org/1999/xlink">
    <!-- Generator: Sketch 49 (51002) - http://www.bohemiancoding.com/sketch -->
    <title>我的</title>
    <desc>Created with Sketch.</desc>
    <defs>
        <linearGradient x1="100%" y1="-21.4666812%" x2="-7.12659941%" y2="79.6670841%" id="linearGradient-1">
            <stop stop-color="#FF8B55" offset="0%"></stop>
            <stop stop-color="#FF6657" offset="100%"></stop>
        </linearGradient>
    </defs>
    <g id="Page-1" stroke="none" stroke-width="1" fill="none" fill-rule="evenodd" opacity="0.987828351">
        <g id="咔咔物业-个人中心" transform="translate(-260.000000, -628.000000)" fill="#FE7B5B" fill-rule="nonzero">
            <g id="botton" transform="translate(-0.500000, 621.000000)">
                <g id="Group">
                    <g transform="translate(261.000000, 7.000000)">
                        <g id="我的" transform="translate(0.722222, 0.000000)">
                            <path d="M20.8692669,17.5283472 C24.1965483,16.4252822 26.6103671,13.2378258 26.6103671,9.48226903 C26.6103671,4.81678523 22.8871964,1.02063466 18.3114053,1.02063466 C13.7356141,1.02063466 10.0124019,4.81678523 10.0124019,9.48235377 C10.0124019,13.2461734 12.4358207,16.4410874 15.774988,17.5366948 C13.2527423,18.768236 12.6943165,21.6295864 12.6878334,21.6660276 C12.6402901,21.9279377 12.8105565,22.1794664 13.0678471,22.2279416 C13.0988915,22.2340858 13.1296866,22.236501 13.1601077,22.2362892 L13.1601077,22.2370942 L23.8488673,22.2370942 L23.8488673,22.2354417 C23.8822595,22.2340173 23.9153988,22.2288736 23.9476942,22.2201025 C24.2004133,22.1509067 24.3508562,21.8861152 24.2829491,21.6283576 C24.2726009,21.5917894 23.4829004,18.7483205 20.8692669,17.5283472 Z M18.310865,14.0169037 C16.0475307,14.0169037 15.1741307,11.6250932 15.1379745,11.5231428 C15.0493296,11.2724192 15.1765827,10.9952122 15.4232342,10.9044484 C15.6679325,10.8136845 15.9405998,10.9429658 16.0296188,11.1936894 C16.057671,11.2703853 16.7193288,13.0497302 18.311239,13.0497302 C19.9206455,13.0497302 20.7111356,11.190808 20.7192396,11.1717399 C20.8208509,10.9264402 21.0988793,10.809998 21.3402529,10.9135586 C21.5811411,11.0167334 21.6946046,11.2992979 21.5938447,11.5450922 C21.5524106,11.6462376 20.5571187,14.0169037 18.310865,14.0169037 Z" id="Shape"></path>
                        </g>
                    </g>
                </g>
            </g>
        </g>
    </g>
</svg>