<?xml version="1.0" encoding="UTF-8"?>
<svg width="24px" height="24px" viewBox="0 0 24 24" version="1.1" xmlns="http://www.w3.org/2000/svg" xmlns:xlink="http://www.w3.org/1999/xlink">
    <!-- Generator: Sketch 49 (51002) - http://www.bohemiancoding.com/sketch -->
    <title>首页 copy</title>
    <desc>Created with Sketch.</desc>
    <defs>
        <linearGradient x1="100%" y1="-21.4666812%" x2="-7.12659941%" y2="79.6670841%" id="linearGradient-1">
            <stop stop-color="#FF8B55" offset="0%"></stop>
            <stop stop-color="#FF6657" offset="100%"></stop>
        </linearGradient>
    </defs>
    <g id="Page-1" stroke="none" stroke-width="1" fill="none" fill-rule="evenodd" opacity="0.987828351">
        <g id="咔咔物业-首页" transform="translate(-79.000000, -629.000000)" fill="url(#linearGradient-1)" fill-rule="nonzero">
            <g id="botton" transform="translate(-0.500000, 621.000000)">
                <g id="Group-2">
                    <g transform="translate(80.000000, 8.000000)">
                        <g id="首页-copy" transform="translate(0.500000, 0.000000)">
                            <path d="M21.6767901,7.96796633 L12.4066945,0.494857876 C11.6096396,-0.147040328 10.3562995,-0.147040328 9.5592446,0.494857876 L0.283373249,7.96796633 C-0.0342935779,8.2270812 -0.0862754223,8.69819915 0.162082279,9.01620376 C0.41043998,9.34009735 0.860949298,9.39309812 1.17861613,9.13987222 L1.46740415,8.89842427 L1.46740415,17.9321109 C1.46740415,19.2100184 2.7900533,20.1699212 3.95675692,20.1699212 L18.592534,20.1699212 C19.7419103,20.1699212 20.4927592,19.2689081 20.4927592,17.9321109 L20.4927592,8.93375812 L20.7584442,9.13987222 C20.8912867,9.24587376 21.0587837,9.29887453 21.2147293,9.29887453 C21.4284324,9.29887453 21.6479113,9.20465094 21.7923053,9.01620376 C22.0464388,8.69819915 21.9944569,8.2270812 21.6767901,7.96796633 Z M10.2523359,18.6800107 L10.2523359,14.5459507 C10.2523359,14.3398366 10.6162088,14.239724 10.9858574,14.239724 C11.3497304,14.239724 11.719379,14.3398366 11.719379,14.5459507 L11.719379,18.6800107 L10.2523359,18.6800107 Z" id="Shape"></path>
                        </g>
                    </g>
                </g>
            </g>
        </g>
    </g>
</svg>