<?xml version="1.0" encoding="UTF-8"?>
<svg width="27px" height="26px" viewBox="0 0 27 26" version="1.1" xmlns="http://www.w3.org/2000/svg" xmlns:xlink="http://www.w3.org/1999/xlink">
    <!-- Generator: Sketch 49 (51002) - http://www.bohemiancoding.com/sketch -->
    <title>输入</title>
    <desc>Created with Sketch.</desc>
    <defs></defs>
    <g id="Page-1" stroke="none" stroke-width="1" fill="none" fill-rule="evenodd">
        <g id="咔咔物业-登陆" transform="translate(-73.000000, -292.000000)" fill="#FFFFFF" fill-rule="nonzero">
            <g id="Group-3" transform="translate(60.000000, 284.667969)">
                <g id="输入" transform="translate(13.699219, 8.664062)">
                    <path d="M18.9180626,3.52849661 C18.2936784,3.09142768 17.5377276,2.92418192 16.7862367,3.05574859 C16.0347457,3.1895452 15.3813723,3.60431469 14.9443033,4.22869886 L6.512887,16.2681638 C6.44375875,16.3662813 6.40138983,16.4800084 6.39247005,16.5981954 L6.01337966,20.9309756 C5.99108023,21.1740394 6.1025774,21.4081835 6.30104237,21.54644 C6.41699943,21.6289479 6.55302599,21.6690869 6.69128248,21.6690869 C6.78939999,21.6690869 6.88751751,21.6467874 6.97894519,21.6044185 L10.9192553,19.769175 C11.0352124,19.7156564 11.12887,19.6309185 11.1957683,19.532801 C11.1957683,19.5305711 11.1979983,19.5283411 11.2002282,19.5283411 L19.6204948,7.50448585 C20.5236219,6.21557851 20.2091999,4.43162372 18.9180626,3.52849661 Z M10.181144,18.6162942 L7.4717627,19.8806722 L7.73266609,16.9014677 L14.1103045,7.7943785 L16.5587824,9.50920504 L10.181144,18.6162942 Z M18.5055231,6.72400562 L17.3370327,8.3942333 L14.8885547,6.67940676 L16.0570451,5.00917908 C16.5297932,4.33573615 17.4619095,4.16849039 18.1398123,4.64123841 C18.8154852,5.11398643 18.9782711,6.04833275 18.5055231,6.72400562 Z M23.3021315,20.5674948 L12.4289271,20.5674948 C12.0542966,20.5674948 11.7487943,20.8707671 11.7487943,21.2476276 C11.7487943,21.624488 12.0520666,21.9277603 12.4289271,21.9277603 L23.3021315,21.9277603 C23.676762,21.9277603 23.9822643,21.624488 23.9822643,21.2476276 C23.9822643,20.8707671 23.676762,20.5674948 23.3021315,20.5674948 Z" id="Shape"></path>
                </g>
            </g>
        </g>
    </g>
</svg>