<?xml version="1.0" encoding="UTF-8"?>
<svg width="34px" height="29px" viewBox="0 0 34 29" version="1.1" xmlns="http://www.w3.org/2000/svg" xmlns:xlink="http://www.w3.org/1999/xlink">
    <!-- Generator: Sketch 49 (51002) - http://www.bohemiancoding.com/sketch -->
    <title>账单 (1)</title>
    <desc>Created with Sketch.</desc>
    <defs></defs>
    <g id="Page-1" stroke="none" stroke-width="1" fill="none" fill-rule="evenodd">
        <g id="咔咔物业-个人中心" transform="translate(-33.000000, -230.000000)" fill="#6169FB" fill-rule="nonzero">
            <g id="账单-(1)" transform="translate(33.000000, 230.208333)">
                <path d="M11.4327517,2 C10.4309065,2 9.6215062,2.66984857 9.6215062,3.49896183 L9.6215062,4.99792365 L23.5086654,4.99792365 C24.5105106,4.99792365 25.3199109,5.66777222 25.3199109,6.49688548 L25.3199109,21.985377 L27.1311564,21.985377 C28.1330016,21.985377 28.942402,21.3155284 28.942402,20.4864151 L28.942402,3.49896183 C28.942402,2.66984857 28.1330016,2 27.1311564,2 L11.4327517,2 Z" id="Shape"></path>
                <path d="M22.5096502,5.99801225 L6.81124554,5.99801225 C5.80940035,5.99801225 5,6.66786081 5,7.49697407 L5,24.4844274 C5,25.3135407 5.80940035,25.9833892 6.81124554,25.9833892 L22.5096502,25.9833892 C23.5114954,25.9833892 24.3208958,25.3135407 24.3208958,24.4844274 L24.3208958,7.49697407 C24.3208958,6.66786081 23.5114954,5.99801225 22.5096502,5.99801225 Z M18.7682962,17.1512251 C19.2663887,17.1512251 19.6173175,17.4650702 19.6173175,17.8491792 C19.6173175,18.2332882 19.2663887,18.504975 18.7682962,18.504975 L15.1656156,18.504975 L15.1656156,20.3716509 C15.1656156,20.6972067 14.7778958,20.9618671 14.2996138,20.9618671 C13.8241619,20.9618671 13.4873834,20.6972067 13.4873834,20.3716509 L13.4873834,18.504975 L10.606371,18.504975 C10.1082784,18.504975 9.70357826,18.2356303 9.70357826,17.8491792 C9.70357826,17.4650702 10.1082784,17.1512251 10.606371,17.1512251 L13.4873834,17.1512251 L13.4873834,15.7998173 L10.606371,15.7998173 C10.1082784,15.7998173 9.70357826,15.5304726 9.70357826,15.1440215 C9.70357826,14.7599125 10.1082784,14.4460674 10.606371,14.4460674 L12.9723104,14.4460674 L10.3375142,12.0875447 C10.0997882,11.8720689 10.1960106,11.4879599 10.5554297,11.232668 C10.9120186,10.9773761 11.3931307,10.9445863 11.6308567,11.160062 L14.3250845,13.6169542 L16.9683709,11.160062 C17.2060969,10.9445863 17.687209,10.9773761 18.043798,11.232668 C18.4003869,11.4879599 18.4966093,11.8720689 18.2617134,12.0875447 L15.6269172,14.4460674 L18.7145248,14.4460674 C19.2126173,14.4460674 19.6173175,14.7575704 19.6173175,15.1440215 C19.6173175,15.5304726 19.2126173,15.7998173 18.7145248,15.7998173 L15.1656156,15.7998173 L15.1656156,17.1512251 L18.7682962,17.1512251 Z" id="Shape"></path>
            </g>
        </g>
    </g>
</svg>