<?xml version="1.0" encoding="UTF-8"?>
<svg width="30px" height="29px" viewBox="0 0 30 29" version="1.1" xmlns="http://www.w3.org/2000/svg" xmlns:xlink="http://www.w3.org/1999/xlink">
    <!-- Generator: Sketch 49 (51002) - http://www.bohemiancoding.com/sketch -->
    <title>维修中</title>
    <desc>Created with Sketch.</desc>
    <defs></defs>
    <g id="Page-1" stroke="none" stroke-width="1" fill="none" fill-rule="evenodd">
        <g id="咔咔物业-个人中心" transform="translate(-309.000000, -230.000000)" fill="#6169FB" fill-rule="nonzero">
            <g id="维修中" transform="translate(309.000000, 230.208333)">
                <path d="M26.5557873,8.05719939 C27.5544658,11.1094372 26.8431589,14.599026 24.4169492,17.0252357 C21.9904456,19.4517661 18.4997343,20.1650239 15.4472293,19.1657574 L9.79336034,24.8196263 C8.24171928,26.3712674 5.72600831,26.3712674 4.17436726,24.8196263 C2.6227262,23.2679853 2.6227262,20.7522743 4.17436726,19.2006333 L9.82823618,13.5467643 C8.82896972,10.4942593 9.54222753,7.00357472 11.9687579,4.57704435 C14.3949676,2.15083469 17.8845564,1.4395278 20.9367942,2.43820631 L17.674072,5.70090177 C16.1224042,7.25254282 16.122431,9.76825379 17.674072,11.3198948 C19.2257131,12.8715359 21.7414241,12.8715359 23.2930651,11.3198948 L26.5557873,8.05719939 Z M6.54036208,23.4452306 C7.11612031,23.4452306 7.58286457,22.9784863 7.58286457,22.4027281 C7.58286457,21.8269698 7.11612031,21.3602256 6.54036208,21.3602256 C5.96460385,21.3602256 5.49785958,21.8269698 5.49785958,22.4027281 C5.49785958,22.9784863 5.96460385,23.4452306 6.54036208,23.4452306 Z" id="Combined-Shape"></path>
            </g>
        </g>
    </g>
</svg>