<?xml version="1.0" encoding="UTF-8"?>
<svg width="349px" height="125px" viewBox="0 0 349 125" version="1.1" xmlns="http://www.w3.org/2000/svg" xmlns:xlink="http://www.w3.org/1999/xlink">
    <!-- Generator: Sketch 49 (51002) - http://www.bohemiancoding.com/sketch -->
    <title>插画</title>
    <desc>Created with Sketch.</desc>
    <defs>
        <linearGradient x1="116.724636%" y1="-6.79250212%" x2="-3.98812072%" y2="102.795376%" id="linearGradient-1">
            <stop stop-color="#6823F3" offset="3.39595376%"></stop>
            <stop stop-color="#6673FE" offset="64.7027094%"></stop>
            <stop stop-color="#7AAAF5" offset="100%"></stop>
        </linearGradient>
        <rect id="path-2" x="0.5" y="0" width="344" height="119.617188" rx="7"></rect>
        <filter x="-1.3%" y="-3.8%" width="104.4%" height="112.5%" filterUnits="objectBoundingBox" id="filter-3">
            <feMorphology radius="0.5" operator="erode" in="SourceAlpha" result="shadowSpreadOuter1"></feMorphology>
            <feOffset dx="3" dy="3" in="shadowSpreadOuter1" result="shadowOffsetOuter1"></feOffset>
            <feGaussianBlur stdDeviation="2.5" in="shadowOffsetOuter1" result="shadowBlurOuter1"></feGaussianBlur>
            <feColorMatrix values="0 0 0 0 0.641452424   0 0 0 0 0.721089385   0 0 0 0 0.996412628  0 0 0 1 0" type="matrix" in="shadowBlurOuter1"></feColorMatrix>
        </filter>
        <linearGradient x1="191.839518%" y1="34.2451362%" x2="-172.541809%" y2="61.2863239%" id="linearGradient-4">
            <stop stop-color="#6E49F4" offset="0%"></stop>
            <stop stop-color="#779AF5" offset="100%"></stop>
        </linearGradient>
    </defs>
    <g id="Page-1" stroke="none" stroke-width="1" fill="none" fill-rule="evenodd">
        <g id="咔咔物业-首页-水费" transform="translate(-15.000000, -70.000000)">
            <g id="插画" transform="translate(15.000000, 70.000000)">
                <g id="Rectangle-5">
                    <use fill="black" fill-opacity="1" filter="url(#filter-3)" xlink:href="#path-2"></use>
                    <use fill="url(#linearGradient-1)" fill-rule="evenodd" xlink:href="#path-2"></use>
                </g>
                <g id="Group-6" transform="translate(311.000000, 67.000000)" fill="#6F5BF2">
                    <ellipse id="Oval-7" cx="4" cy="3.66666667" rx="1.33333333" ry="3.66666667"></ellipse>
                    <ellipse id="Oval-7" transform="translate(4.000000, 3.666667) scale(-1, 1) rotate(90.000000) translate(-4.000000, -3.666667) " cx="4" cy="3.66666667" rx="1.33333333" ry="3.66666667"></ellipse>
                </g>
                <g id="Group-6" transform="translate(38.500000, 27.333333)" fill="#789AF5">
                    <ellipse id="Oval-7" cx="4" cy="3.66666667" rx="1.33333333" ry="3.66666667"></ellipse>
                    <ellipse id="Oval-7" transform="translate(4.000000, 3.666667) scale(-1, 1) rotate(90.000000) translate(-4.000000, -3.666667) " cx="4" cy="3.66666667" rx="1.33333333" ry="3.66666667"></ellipse>
                </g>
                <g id="Group-6" transform="translate(310.000000, 84.833333)" fill="#6F5BF2">
                    <ellipse id="Oval-7" cx="2.5" cy="2.29166667" rx="1" ry="2.29166667"></ellipse>
                    <ellipse id="Oval-7" transform="translate(2.500000, 2.291667) scale(-1, 1) rotate(90.000000) translate(-2.500000, -2.291667) " cx="2.5" cy="2.29166667" rx="1" ry="2.29166667"></ellipse>
                </g>
                <g id="Group-6" transform="translate(302.000000, 71.833333)" fill="#6F5BF2">
                    <ellipse id="Oval-7" cx="2.5" cy="2.29166667" rx="1" ry="2.29166667"></ellipse>
                    <ellipse id="Oval-7" transform="translate(2.500000, 2.291667) scale(-1, 1) rotate(90.000000) translate(-2.500000, -2.291667) " cx="2.5" cy="2.29166667" rx="1" ry="2.29166667"></ellipse>
                </g>
                <g id="Group-6" transform="translate(331.000000, 95.833333)" fill="#6F5BF2">
                    <ellipse id="Oval-7" cx="2.5" cy="2.29166667" rx="1" ry="2.29166667"></ellipse>
                    <ellipse id="Oval-7" transform="translate(2.500000, 2.291667) scale(-1, 1) rotate(90.000000) translate(-2.500000, -2.291667) " cx="2.5" cy="2.29166667" rx="1" ry="2.29166667"></ellipse>
                </g>
                <g id="Group-5" transform="translate(289.000000, 25.000000)" fill="#705CF4" opacity="0.747395833">
                    <rect id="Rectangle-36" x="0" y="0.660355179" width="33.7400017" height="3.67928964" rx="1.83964482"></rect>
                    <rect id="Rectangle-36" x="23.7599983" y="4.33964482" width="2.74000001" height="4.5"></rect>
                    <path d="M14,7.4234375 L55,7.4234375 L55,11.4234375 L14,11.4234375 C12.8954305,11.4234375 12,10.528007 12,9.4234375 L12,9.4234375 C12,8.318868 12.8954305,7.4234375 14,7.4234375 Z" id="Rectangle-36"></path>
                    <circle id="Oval-3" cx="39" cy="2" r="2"></circle>
                    <circle id="Oval-3" cx="47" cy="2" r="2"></circle>
                </g>
                <g id="Group-5-Copy" transform="translate(7.000000, 96.435547)" fill="#7792F5">
                    <path d="M14.7599983,7.4234375 L14.7599983,4.33964482 L1.83964482,4.33964482 C0.823637041,4.33964482 1.24425068e-16,3.51600778 0,2.5 C-1.24425068e-16,1.48399222 0.823637041,0.660355179 1.83964482,0.660355179 L24.900355,0.660355179 C25.9163627,0.660355179 26.7399998,1.48399222 26.7399998,2.5 C26.7399998,3.51600778 25.9163627,4.33964482 24.900355,4.33964482 L17.4999983,4.33964482 L17.4999983,7.4234375 L51,7.4234375 C52.1045695,7.4234375 53,8.318868 53,9.4234375 C53,10.528007 52.1045695,11.4234375 51,11.4234375 L13,11.4234375 C11.8954305,11.4234375 11,10.528007 11,9.4234375 C11,8.318868 11.8954305,7.4234375 13,7.4234375 L14.7599983,7.4234375 Z M38,4 C36.8954305,4 36,3.1045695 36,2 C36,0.8954305 36.8954305,0 38,0 C39.1045695,0 40,0.8954305 40,2 C40,3.1045695 39.1045695,4 38,4 Z M30,4 C28.8954305,4 28,3.1045695 28,2 C28,0.8954305 28.8954305,0 30,0 C31.1045695,0 32,0.8954305 32,2 C32,3.1045695 31.1045695,4 30,4 Z" id="Oval-3"></path>
                </g>
                <g id="缴水费-(2)" transform="translate(275.515625, 81.793221)" fill="url(#linearGradient-4)" fill-rule="nonzero" opacity="0.605751812">
                    <path d="M28.7284005,12.4595981 C28.7040651,12.1432376 28.4412425,11.8998834 28.1200149,11.8998834 C28.1200149,11.8998834 20.6393055,11.8950163 20.5273625,11.7149341 C20.2596729,11.2768965 20.152597,7.87967128 20.0455211,7.30048819 C20.0017174,7.05226686 19.7826985,6.86731764 19.524743,6.86731764 L18.7022057,6.86731764 L18.7022057,5.2757809 C18.8190157,5.16870503 18.9455599,5.06162916 19.0721042,4.94968621 C19.1743129,4.86207868 19.2765217,4.77447116 19.3787305,4.68199655 C19.5101418,4.71119905 19.6415531,4.74040156 19.7680973,4.76960407 C20.2937424,4.89128119 20.7901851,5.00322414 21.3206973,5.13950252 C21.4618428,5.1784392 21.6029883,5.21737588 21.7538679,5.26117964 C22.2697789,5.41205927 22.8586962,5.58727433 23.481683,5.58727433 C23.6082272,5.58727433 23.7396385,5.57754016 23.8613156,5.56780599 C24.8736693,5.45099595 25.949295,4.64305987 25.9103584,3.15373191 C25.8811558,1.98563154 25.0002135,1.01221458 23.8564486,0.880803286 C23.7445056,0.866202031 23.6325626,0.861334947 23.5157526,0.861334947 C22.732152,0.861334947 21.8998804,1.14362587 21.1649506,1.38698011 C20.8631914,1.48918889 20.5809005,1.5816635 20.3132108,1.65466978 C20.2256033,1.6790052 20.1379957,1.70334062 20.0455211,1.73254313 C19.8411036,1.79094815 19.5636797,1.87368859 19.4371355,1.87855568 C19.3835976,1.85908734 19.2667875,1.72280896 19.1889142,1.63520144 C19.003965,1.42591679 18.7703449,1.16309421 18.4004464,0.983012068 C17.9332063,0.759126165 17.3053524,0.627714874 16.6823655,0.627714874 C16.0593786,0.627714874 15.4801955,0.749391995 15.0080883,0.983012068 C14.6722595,1.14849295 14.4240381,1.39184719 14.2098864,1.60599893 C14.1466143,1.66927103 14.0833422,1.73254313 14.0200701,1.78608107 C13.4749566,1.70820771 12.9395773,1.53785974 12.3701283,1.35291052 C11.6108631,1.11929044 10.8175283,0.866202031 9.99012384,0.866202031 C9.8441113,0.866202031 9.69809875,0.875936201 9.56182038,0.890537456 C8.8171564,0.973277898 7.9508153,1.60113184 7.66852438,2.26305538 C7.35703095,2.99311811 7.38623345,3.74751626 7.75126482,4.38997145 C8.1114291,5.02269248 8.77821972,5.48019846 9.49368119,5.57754016 C9.63969374,5.5970085 9.79057337,5.60674266 9.941453,5.60674266 C10.7785916,5.60674266 11.5913948,5.31958466 12.3117233,5.06162916 C12.5988813,4.95942038 12.866571,4.86694577 13.1050581,4.79880658 C13.1877986,4.77447116 13.270539,4.75013573 13.3630136,4.72093322 C13.557697,4.65766112 13.8253867,4.57492068 13.9665322,4.57492068 L13.9762663,4.57492068 C14.0346713,4.58952193 14.1076776,4.67712946 14.2147535,4.81827492 C14.3364306,4.97888872 14.4921773,5.1784392 14.7209303,5.32931883 L14.7209303,6.87705181 C14.6722595,6.87705181 14.6235886,6.87218472 14.5700507,6.87218472 C14.4678419,6.86731764 14.3656331,6.86245055 14.2634243,6.86245055 C14.1758168,6.86245055 14.0979434,6.86731764 14.0249372,6.87218472 C13.78645,6.89652015 13.5917666,7.08146937 13.557697,7.31995653 C13.4652224,7.92347505 13.1050581,11.8317442 12.7351597,11.8658138 C12.525875,11.8852821 6.26193686,11.8998834 6.01371553,11.8998834 C5.76062712,11.8998834 5.51240579,11.8950163 5.26905155,11.8950163 C4.29563458,11.8950163 3.28328094,11.9290859 2.4607436,12.1919085 C1.47272537,12.508269 0.840004346,13.1263887 0.577181764,14.0316665 C0.319226268,14.9272101 0.484707153,23.0552418 0.484707153,23.0552418 C0.484707153,23.3229315 0.659922207,23.5565516 0.913010618,23.639292 C1.90589593,23.9410513 3.18593924,24.1113992 4.51952048,24.1113992 C5.72169044,24.1113992 6.87032246,23.9702538 7.74639773,23.7122983 C7.94594821,23.6538932 8.10169493,23.4981465 8.16009994,23.2985961 C8.30611249,22.7924192 8.10656201,19.8770354 8.3012454,19.5266053 C8.335315,19.4974028 11.7714769,19.219979 12.5307421,19.278384 C13.0807227,19.3221877 13.6501716,19.5412066 14.2536902,19.7699595 C15.0032212,20.0571176 15.7819548,20.3540097 16.6288276,20.3588768 L16.6434288,20.3588768 C17.4416307,20.3588768 18.1862947,20.0717188 18.9066233,19.794295 C19.5296101,19.5558078 20.1185274,19.3270548 20.7317801,19.278384 C21.2525582,19.2345802 27.7987873,19.3075865 28.2222237,19.278384 C28.5483183,19.2589156 28.7965397,18.9814918 28.7916726,18.6602642 C28.7819384,17.8815306 28.8257422,13.6715022 28.7284005,12.4595981 Z M5.93584217,28.4723072 C5.46860203,27.8006495 5.03056439,27.1630614 4.77747598,26.3794608 C4.68500137,26.0874357 4.5146534,25.8878852 4.28590041,25.7954106 C4.16909038,25.7516068 4.04254617,25.7418726 3.92086905,25.7710752 C3.82839444,25.7954106 3.75052108,25.8294802 3.69698315,25.8684169 C3.51690101,25.9414231 3.37575555,26.0971698 3.33195178,26.2967203 C3.12753422,27.1776627 2.74303452,27.7519787 2.29526271,28.4236364 C2.19792102,28.5696489 2.09571223,28.7205286 1.99350345,28.8762753 C1.42892161,29.7523506 -0.284292252,32.4243801 1.58953541,34.4198849 C2.17358559,35.0428718 3.04966086,35.398169 3.98900824,35.398169 C4.96729229,35.398169 5.88717132,35.0185363 6.51502527,34.3566128 C7.12341087,33.7141576 7.42030305,32.8526836 7.36676512,31.8743995 C7.29862593,30.4434766 6.60749988,29.4408571 5.93584217,28.4723072 Z" id="Shape"></path>
                </g>
            </g>
        </g>
    </g>
</svg>