<?xml version="1.0" encoding="UTF-8"?>
<svg width="345px" height="120px" viewBox="0 0 345 120" version="1.1" xmlns="http://www.w3.org/2000/svg" xmlns:xlink="http://www.w3.org/1999/xlink">
    <!-- Generator: Sketch 49 (51002) - http://www.bohemiancoding.com/sketch -->
    <title>插画</title>
    <desc>Created with Sketch.</desc>
    <defs>
        <linearGradient x1="112.625287%" y1="-3.07094846%" x2="-3.98812072%" y2="102.795376%" id="linearGradient-1">
            <stop stop-color="#4694E2" offset="0%"></stop>
            <stop stop-color="#66BDFE" offset="64.7027094%"></stop>
            <stop stop-color="#7ACAF5" offset="100%"></stop>
        </linearGradient>
        <rect id="path-2" x="0.5" y="0" width="344" height="119.617188" rx="7"></rect>
        <filter x="-1.3%" y="-3.8%" width="104.4%" height="112.5%" filterUnits="objectBoundingBox" id="filter-3">
            <feMorphology radius="0.5" operator="erode" in="SourceAlpha" result="shadowSpreadOuter1"></feMorphology>
            <feOffset dx="3" dy="3" in="shadowSpreadOuter1" result="shadowOffsetOuter1"></feOffset>
            <feGaussianBlur stdDeviation="2.5" in="shadowOffsetOuter1" result="shadowBlurOuter1"></feGaussianBlur>
            <feColorMatrix values="0 0 0 0 0.641452424   0 0 0 0 0.721089385   0 0 0 0 0.996412628  0 0 0 1 0" type="matrix" in="shadowBlurOuter1"></feColorMatrix>
        </filter>
    </defs>
    <g id="Page-1" stroke="none" stroke-width="1" fill="none" fill-rule="evenodd">
        <g id="咔咔物业-首页-物业缴纳" transform="translate(-15.000000, -70.000000)">
            <g id="插画" transform="translate(15.000000, 70.000000)">
                <g id="Rectangle-5">
                    <use fill="black" fill-opacity="1" filter="url(#filter-3)" xlink:href="#path-2"></use>
                    <use fill="url(#linearGradient-1)" fill-rule="evenodd" xlink:href="#path-2"></use>
                </g>
                <g id="Group-6" transform="translate(311.000000, 67.000000)" fill="#5AADF3">
                    <ellipse id="Oval-7" cx="4" cy="3.66666667" rx="1.33333333" ry="3.66666667"></ellipse>
                    <ellipse id="Oval-7" transform="translate(4.000000, 3.666667) scale(-1, 1) rotate(90.000000) translate(-4.000000, -3.666667) " cx="4" cy="3.66666667" rx="1.33333333" ry="3.66666667"></ellipse>
                </g>
                <g id="Group-6" transform="translate(38.500000, 27.333333)" fill="#5AADF3">
                    <ellipse id="Oval-7" cx="4" cy="3.66666667" rx="1.33333333" ry="3.66666667"></ellipse>
                    <ellipse id="Oval-7" transform="translate(4.000000, 3.666667) scale(-1, 1) rotate(90.000000) translate(-4.000000, -3.666667) " cx="4" cy="3.66666667" rx="1.33333333" ry="3.66666667"></ellipse>
                </g>
                <g id="Group-6" transform="translate(310.000000, 84.833333)" fill="#5AADF3">
                    <ellipse id="Oval-7" cx="2.5" cy="2.29166667" rx="1" ry="2.29166667"></ellipse>
                    <ellipse id="Oval-7" transform="translate(2.500000, 2.291667) scale(-1, 1) rotate(90.000000) translate(-2.500000, -2.291667) " cx="2.5" cy="2.29166667" rx="1" ry="2.29166667"></ellipse>
                </g>
                <g id="Group-6" transform="translate(302.000000, 71.833333)" fill="#5AADF3">
                    <ellipse id="Oval-7" cx="2.5" cy="2.29166667" rx="1" ry="2.29166667"></ellipse>
                    <ellipse id="Oval-7" transform="translate(2.500000, 2.291667) scale(-1, 1) rotate(90.000000) translate(-2.500000, -2.291667) " cx="2.5" cy="2.29166667" rx="1" ry="2.29166667"></ellipse>
                </g>
                <g id="Group-6" transform="translate(331.000000, 95.833333)" fill="#69C0FD">
                    <ellipse id="Oval-7" cx="2.5" cy="2.29166667" rx="1" ry="2.29166667"></ellipse>
                    <ellipse id="Oval-7" transform="translate(2.500000, 2.291667) scale(-1, 1) rotate(90.000000) translate(-2.500000, -2.291667) " cx="2.5" cy="2.29166667" rx="1" ry="2.29166667"></ellipse>
                </g>
                <g id="Group-5" transform="translate(289.000000, 25.000000)" fill="#57AAF0" opacity="0.747395833">
                    <rect id="Rectangle-36" x="0" y="0.660355179" width="33.7400017" height="3.67928964" rx="1.83964482"></rect>
                    <rect id="Rectangle-36" x="23.7599983" y="4.33964482" width="2.74000001" height="4.5"></rect>
                    <path d="M14,7.4234375 L55,7.4234375 L55,11.4234375 L14,11.4234375 C12.8954305,11.4234375 12,10.528007 12,9.4234375 L12,9.4234375 C12,8.318868 12.8954305,7.4234375 14,7.4234375 Z" id="Rectangle-36"></path>
                    <circle id="Oval-3" cx="39" cy="2" r="2"></circle>
                    <circle id="Oval-3" cx="47" cy="2" r="2"></circle>
                </g>
                <g id="Group-5-Copy" transform="translate(7.000000, 96.435547)" fill="#58ACF2">
                    <path d="M14.7599983,7.4234375 L14.7599983,4.33964482 L1.83964482,4.33964482 C0.823637041,4.33964482 1.24425068e-16,3.51600778 0,2.5 C-1.24425068e-16,1.48399222 0.823637041,0.660355179 1.83964482,0.660355179 L24.900355,0.660355179 C25.9163627,0.660355179 26.7399998,1.48399222 26.7399998,2.5 C26.7399998,3.51600778 25.9163627,4.33964482 24.900355,4.33964482 L17.4999983,4.33964482 L17.4999983,7.4234375 L51,7.4234375 C52.1045695,7.4234375 53,8.318868 53,9.4234375 C53,10.528007 52.1045695,11.4234375 51,11.4234375 L13,11.4234375 C11.8954305,11.4234375 11,10.528007 11,9.4234375 C11,8.318868 11.8954305,7.4234375 13,7.4234375 L14.7599983,7.4234375 Z M38,4 C36.8954305,4 36,3.1045695 36,2 C36,0.8954305 36.8954305,0 38,0 C39.1045695,0 40,0.8954305 40,2 C40,3.1045695 39.1045695,4 38,4 Z M30,4 C28.8954305,4 28,3.1045695 28,2 C28,0.8954305 28.8954305,0 30,0 C31.1045695,0 32,0.8954305 32,2 C32,3.1045695 31.1045695,4 30,4 Z" id="Oval-3"></path>
                </g>
                <g id="商业物业" transform="translate(232.595268, 62.781250)" fill="#5EB3F7" fill-rule="nonzero">
                    <path d="M28.7106954,0 L0.926554017,0 C0.414921506,0 0,0.413361655 0,0.922654362 L0,55.3748608 L3.70465616,55.3748608 L3.70465616,47.0686316 C3.70465616,46.5593389 4.11957767,46.1459773 4.63121018,46.1459773 L8.33586634,46.1459773 C8.84671896,46.1459773 9.26164041,46.5593389 9.26164046,47.0686316 L9.26164046,55.3748608 L29.6372494,55.3748608 L29.6372494,0.922654362 C29.6372494,0.413361655 29.2223279,0 28.7106954,0 Z M9.35913142,40.8814659 C9.35870207,41.1324105 9.15537823,41.3357343 8.90443362,41.3361637 L4.35433588,41.3361637 C4.10339127,41.3357343 3.90006743,41.1324105 3.89963808,40.8814659 L3.89963808,36.3313682 C3.89963808,36.0802315 4.1031992,35.8766704 4.35433588,35.8766704 L8.90443362,35.8766704 C9.1555703,35.8766704 9.35913142,36.0802315 9.35913142,36.3313682 L9.35913142,40.8814659 Z M9.35913142,30.7424068 C9.35870207,30.9933514 9.15537823,31.1966753 8.90443362,31.1971046 L4.35433588,31.1971046 C4.10339127,31.1966753 3.90006743,30.9933514 3.89963808,30.7424068 L3.89963808,26.1923091 C3.89963808,25.9411725 4.1031992,25.7376113 4.35433588,25.7376113 L8.90443362,25.7376113 C9.1555703,25.7376113 9.35913142,25.9411725 9.35913142,26.1923091 L9.35913142,30.7424068 Z M9.35913142,20.6033479 C9.35870207,20.8542925 9.15537823,21.0576163 8.90443362,21.0580457 L4.35433588,21.0580457 C4.10339127,21.0576163 3.90006743,20.8542925 3.89963808,20.6033479 L3.89963808,16.0532501 C3.89963808,15.8021134 4.1031992,15.5985523 4.35433588,15.5985523 L8.90443362,15.5985523 C9.1555703,15.5985523 9.35913142,15.8021134 9.35913142,16.0532501 L9.35913142,20.6033479 Z M9.35913142,10.4642888 C9.35870207,10.7152334 9.15537823,10.9185573 8.90443362,10.9189866 L4.35433588,10.9189866 C4.10339127,10.9185573 3.90006743,10.7152334 3.89963808,10.4642888 L3.89963808,5.91419114 C3.89963808,5.66305441 4.1031992,5.45949329 4.35433588,5.45949329 L8.90443362,5.45949329 C9.1555703,5.45949329 9.35913142,5.66305441 9.35913142,5.91419114 L9.35913142,10.4642888 Z M17.1584076,40.8814659 C17.1579782,41.1324105 16.9546544,41.3357343 16.7037098,41.3361637 L12.153612,41.3361637 C11.9026674,41.3357343 11.6993436,41.1324105 11.6989142,40.8814659 L11.6989142,36.3313682 C11.6989142,36.0802315 11.9024754,35.8766704 12.153612,35.8766704 L16.7037098,35.8766704 C16.9548465,35.8766704 17.1584076,36.0802315 17.1584076,36.3313682 L17.1584076,40.8814659 Z M17.1584076,30.7424068 C17.1579782,30.9933514 16.9546544,31.1966753 16.7037098,31.1971046 L12.153612,31.1971046 C11.9026674,31.1966753 11.6993436,30.9933514 11.6989142,30.7424068 L11.6989142,26.1923091 C11.6989142,25.9411725 11.9024754,25.7376113 12.153612,25.7376113 L16.7037098,25.7376113 C16.9548465,25.7376113 17.1584076,25.9411725 17.1584076,26.1923091 L17.1584076,30.7424068 Z M17.1584076,20.6033479 C17.1579782,20.8542925 16.9546544,21.0576163 16.7037098,21.0580457 L12.153612,21.0580457 C11.9026674,21.0576163 11.6993436,20.8542925 11.6989142,20.6033479 L11.6989142,16.0532501 C11.6989142,15.8021134 11.9024754,15.5985523 12.153612,15.5985523 L16.7037098,15.5985523 C16.9548465,15.5985523 17.1584076,15.8021134 17.1584076,16.0532501 L17.1584076,20.6033479 Z M17.1584076,10.4642888 C17.1579782,10.7152334 16.9546544,10.9185573 16.7037098,10.9189866 L12.153612,10.9189866 C11.9026674,10.9185573 11.6993436,10.7152334 11.6989142,10.4642888 L11.6989142,5.91419114 C11.6989142,5.66305447 11.9024754,5.45949334 12.153612,5.45949329 L16.7037098,5.45949329 C16.9548465,5.45949329 17.1584076,5.66305441 17.1584076,5.91419114 L17.1584076,10.4642888 Z M25.7376113,40.8814659 C25.737182,41.1324105 25.5338581,41.3357343 25.2829135,41.3361637 L20.7328158,41.3361637 C20.4818712,41.3357343 20.2785473,41.1324105 20.278118,40.8814659 L20.278118,36.3313682 C20.278118,36.0802315 20.4816791,35.8766704 20.7328158,35.8766704 L25.2829135,35.8766704 C25.5340502,35.8766704 25.7376113,36.0802315 25.7376113,36.3313682 L25.7376113,40.8814659 Z M25.7376113,30.7424068 C25.737182,30.9933514 25.5338581,31.1966753 25.2829135,31.1971046 L20.7328158,31.1971046 C20.4818712,31.1966753 20.2785473,30.9933515 20.278118,30.7424068 L20.278118,26.1923091 C20.278118,25.9411725 20.4816791,25.7376113 20.7328158,25.7376113 L25.2829135,25.7376113 C25.5340502,25.7376113 25.7376113,25.9411725 25.7376113,26.1923091 L25.7376113,30.7424068 Z M25.7376113,20.6033479 C25.737182,20.8542925 25.5338581,21.0576163 25.2829135,21.0580457 L20.7328158,21.0580457 C20.4818712,21.0576163 20.2785473,20.8542925 20.278118,20.6033479 L20.278118,16.0532501 C20.278118,15.8021134 20.4816791,15.5985523 20.7328158,15.5985523 L25.2829135,15.5985523 C25.5340502,15.5985523 25.7376113,15.8021134 25.7376113,16.0532501 L25.7376113,20.6033479 Z M25.7376113,10.4642888 C25.737182,10.7152334 25.5338581,10.9185573 25.2829135,10.9189866 L20.7328158,10.9189866 C20.4818712,10.9185573 20.2785473,10.7152335 20.278118,10.4642888 L20.278118,5.91419114 C20.278118,5.66305447 20.4816791,5.45949334 20.7328158,5.45949329 L25.2829135,5.45949329 C25.5340502,5.45949329 25.7376113,5.66305441 25.7376113,5.91419114 L25.7376113,10.4642888 Z M61.718792,26.5479561 L33.9346506,18.7533595 C33.6558292,18.6745123 33.356174,18.7307574 33.124922,18.9053449 C32.8936701,19.0799324 32.7574988,19.352722 32.7569599,19.642477 L32.7569599,55.3748608 L36.4616161,55.3748608 L36.4616161,47.9842666 C36.4616161,47.4749739 36.8765376,47.0608323 37.3881701,47.0608324 L41.0928262,47.0608324 C41.6036788,47.0608324 42.0186003,47.474194 42.0186004,47.9842666 L42.0186004,55.3748608 L62.3942093,55.3748608 L62.3942093,27.4378536 C62.3942093,27.0244919 62.118115,26.6594858 61.718792,26.5487361 L61.718792,26.5479561 Z M42.1160913,43.2212487 C42.1160913,43.4723714 41.9125161,43.6759465 41.6613935,43.6759465 L37.1112958,43.6759465 C36.8601731,43.6759465 36.656598,43.4723714 36.656598,43.2212487 L36.656598,38.671151 C36.656598,38.4200143 36.8601591,38.2164532 37.1112958,38.2164532 L41.6613935,38.2164532 C41.9125301,38.2164532 42.1160913,38.4200143 42.1160913,38.671151 L42.1160913,43.2212487 Z M42.1160913,33.0821897 C42.1160913,33.3333124 41.9125161,33.5368875 41.6613935,33.5368875 L37.1112958,33.5368875 C36.8601731,33.5368875 36.656598,33.3333124 36.656598,33.0821897 L36.656598,28.532092 C36.656598,28.2809553 36.8601591,28.0773942 37.1112958,28.0773942 L41.6613935,28.0773942 C41.9125301,28.0773942 42.1160913,28.2809553 42.1160913,28.532092 L42.1160913,33.0821897 Z M50.6952951,43.2212487 C50.6952951,43.4723714 50.4917199,43.6759465 50.2405973,43.6759465 L45.6904995,43.6759465 C45.4393769,43.6759465 45.2358017,43.4723714 45.2358017,43.2212487 L45.2358017,38.671151 C45.2358017,38.4200143 45.4393629,38.2164532 45.6904995,38.2164532 L50.2405973,38.2164532 C50.4917339,38.2164532 50.6952951,38.4200143 50.6952951,38.671151 L50.6952951,43.2212487 Z M50.6952951,33.0821897 C50.6952951,33.3333124 50.4917199,33.5368875 50.2405973,33.5368875 L45.6904995,33.5368875 C45.4393769,33.5368875 45.2358017,33.3333124 45.2358017,33.0821897 L45.2358017,28.532092 C45.2358017,28.2809553 45.4393629,28.0773942 45.6904995,28.0773942 L50.2405973,28.0773942 C50.4917339,28.0773942 50.6952951,28.2809553 50.6952951,28.532092 L50.6952951,33.0821897 Z M58.4945712,43.2212487 C58.4945712,43.4723714 58.2909961,43.6759465 58.0398734,43.6759465 L53.4897757,43.6759465 C53.238653,43.6759465 53.0350779,43.4723714 53.0350779,43.2212487 L53.0350779,38.671151 C53.0350779,38.4200143 53.238639,38.2164532 53.4897757,38.2164532 L58.0398734,38.2164532 C58.2910101,38.2164532 58.4945712,38.4200143 58.4945712,38.671151 L58.4945712,43.2212487 Z M58.4945712,33.0821897 C58.4945712,33.3333124 58.2909961,33.5368875 58.0398734,33.5368875 L53.4897757,33.5368875 C53.238653,33.5368875 53.0350779,33.3333124 53.0350779,33.0821897 L53.0350779,28.532092 C53.0350779,28.2809553 53.238639,28.0773942 53.4897757,28.0773942 L58.0398734,28.0773942 C58.2910101,28.0773942 58.4945712,28.2809553 58.4945712,28.532092 L58.4945712,33.0821897 Z" id="Shape"></path>
                </g>
            </g>
        </g>
    </g>
</svg>