<?xml version="1.0" encoding="UTF-8"?>
<svg width="349px" height="124px" viewBox="0 0 349 124" version="1.1" xmlns="http://www.w3.org/2000/svg" xmlns:xlink="http://www.w3.org/1999/xlink">
    <!-- Generator: Sketch 49 (51002) - http://www.bohemiancoding.com/sketch -->
    <title>插画</title>
    <desc>Created with Sketch.</desc>
    <defs>
        <linearGradient x1="112.625287%" y1="-3.07094846%" x2="-3.98812072%" y2="102.795376%" id="linearGradient-1">
            <stop stop-color="#FC6631" offset="0%"></stop>
            <stop stop-color="#FA6A40" offset="64.7027094%"></stop>
            <stop stop-color="#F75252" offset="100%"></stop>
        </linearGradient>
        <rect id="path-2" x="0.5" y="0" width="344" height="119.617188" rx="7"></rect>
        <filter x="-1.3%" y="-3.8%" width="104.4%" height="112.5%" filterUnits="objectBoundingBox" id="filter-3">
            <feMorphology radius="0.5" operator="erode" in="SourceAlpha" result="shadowSpreadOuter1"></feMorphology>
            <feOffset dx="3" dy="3" in="shadowSpreadOuter1" result="shadowOffsetOuter1"></feOffset>
            <feGaussianBlur stdDeviation="2.5" in="shadowOffsetOuter1" result="shadowBlurOuter1"></feGaussianBlur>
            <feColorMatrix values="0 0 0 0 0.99354273   0 0 0 0 0.756069025   0 0 0 0 0.662675438  0 0 0 1 0" type="matrix" in="shadowBlurOuter1"></feColorMatrix>
        </filter>
    </defs>
    <g id="Page-1" stroke="none" stroke-width="1" fill="none" fill-rule="evenodd">
        <g id="咔咔物业-首页-燃气缴纳" transform="translate(-15.000000, -70.000000)">
            <g id="插画" transform="translate(15.000000, 70.000000)">
                <g id="Rectangle-5">
                    <use fill="black" fill-opacity="1" filter="url(#filter-3)" xlink:href="#path-2"></use>
                    <use fill="url(#linearGradient-1)" fill-rule="evenodd" xlink:href="#path-2"></use>
                </g>
                <g id="Group-5-Copy" transform="translate(7.000000, 24.435547)">
                    <g id="Group-5" transform="translate(282.000000, 0.564453)" fill="#FF8E7A" opacity="0.747395833">
                        <rect id="Rectangle-36" x="0" y="0.660355179" width="33.7400017" height="3.67928964" rx="1.83964482"></rect>
                        <rect id="Rectangle-36" x="23.7599983" y="4.33964482" width="2.74000001" height="4.5"></rect>
                        <path d="M14,7.4234375 L55,7.4234375 L55,11.4234375 L14,11.4234375 C12.8954305,11.4234375 12,10.528007 12,9.4234375 L12,9.4234375 C12,8.318868 12.8954305,7.4234375 14,7.4234375 Z" id="Rectangle-36"></path>
                        <circle id="Oval-3" cx="39" cy="2" r="2"></circle>
                        <circle id="Oval-3" cx="47" cy="2" r="2"></circle>
                    </g>
                    <path d="M14.7599983,79.4234375 L14.7599983,76.3396448 L1.83964482,76.3396448 C0.823637041,76.3396448 1.24425068e-16,75.5160078 0,74.5 C-1.24425068e-16,73.4839922 0.823637041,72.6603552 1.83964482,72.6603552 L24.900355,72.6603552 C25.9163627,72.6603552 26.7399998,73.4839922 26.7399998,74.5 C26.7399998,75.5160078 25.9163627,76.3396448 24.900355,76.3396448 L17.4999983,76.3396448 L17.4999983,79.4234375 L51,79.4234375 C52.1045695,79.4234375 53,80.318868 53,81.4234375 C53,82.528007 52.1045695,83.4234375 51,83.4234375 L13,83.4234375 C11.8954305,83.4234375 11,82.528007 11,81.4234375 C11,80.318868 11.8954305,79.4234375 13,79.4234375 L14.7599983,79.4234375 Z M38,76 C36.8954305,76 36,75.1045695 36,74 C36,72.8954305 36.8954305,72 38,72 C39.1045695,72 40,72.8954305 40,74 C40,75.1045695 39.1045695,76 38,76 Z M30,76 C28.8954305,76 28,75.1045695 28,74 C28,72.8954305 28.8954305,72 30,72 C31.1045695,72 32,72.8954305 32,74 C32,75.1045695 31.1045695,76 30,76 Z" id="Oval-3" fill="#FD8368"></path>
                </g>
                <g id="Group-2" transform="translate(38.000000, 27.000000)">
                    <g id="火-(1)" transform="translate(194.085938, 32.808594)" fill-rule="nonzero">
                        <path d="M31.2337563,19.7179538 C32.5214157,26.2576256 27.2567313,29.0325753 27.2567313,29.0325753 C28.4452574,17.4390599 13.3971889,3.80478478 11.854922,0 C18.7255252,16.9505097 11.0991897,21.842153 11.0991897,21.842153 C11.7449689,13.1662924 5.96356369,11.7910995 5.96356369,11.7910995 C9.33087571,18.7270117 3.09805865,20.6840394 0.47965554,28.4183784 C-2.04302604,35.8693543 6.15734618,56.3862222 27.7264686,45.2432414 C42.2272089,37.7522028 31.2337563,19.7179538 31.2337563,19.7179538 Z" id="Shape" fill="#FF8B63"></path>
                        <path d="M35.6324555,4.91241404 C35.9532553,6.54166909 34.6416431,7.23300361 34.6416431,7.23300361 C34.9377454,4.34466395 31.1887589,0.947901511 30.8045276,0 C32.516229,4.22294944 30.616249,5.44162444 30.616249,5.44162444 C30.7771346,3.28017198 29.3367896,2.93756458 29.3367896,2.93756458 C30.1757017,4.66553661 28.6228947,5.15309889 27.9705612,7.07998623 C27.3420753,8.93627818 29.3850674,14.0477289 34.7586706,11.2716328 C38.371299,9.40535987 35.6324555,4.91241404 35.6324555,4.91241404 Z" id="Shape-Copy" fill="#FF8156"></path>
                    </g>
                    <g id="Group-6" transform="translate(273.000000, 40.000000)" fill="#FDC900">
                        <ellipse id="Oval-7" cx="4" cy="3.66666667" rx="1.33333333" ry="3.66666667"></ellipse>
                        <ellipse id="Oval-7" transform="translate(4.000000, 3.666667) scale(-1, 1) rotate(90.000000) translate(-4.000000, -3.666667) " cx="4" cy="3.66666667" rx="1.33333333" ry="3.66666667"></ellipse>
                    </g>
                    <g id="Group-6" transform="translate(0.500000, 0.333333)" fill="#FDC900">
                        <ellipse id="Oval-7" cx="4" cy="3.66666667" rx="1.33333333" ry="3.66666667"></ellipse>
                        <ellipse id="Oval-7" transform="translate(4.000000, 3.666667) scale(-1, 1) rotate(90.000000) translate(-4.000000, -3.666667) " cx="4" cy="3.66666667" rx="1.33333333" ry="3.66666667"></ellipse>
                    </g>
                    <g id="Group-6" transform="translate(272.000000, 57.833333)" fill="#FDC900">
                        <ellipse id="Oval-7" cx="2.5" cy="2.29166667" rx="1" ry="2.29166667"></ellipse>
                        <ellipse id="Oval-7" transform="translate(2.500000, 2.291667) scale(-1, 1) rotate(90.000000) translate(-2.500000, -2.291667) " cx="2.5" cy="2.29166667" rx="1" ry="2.29166667"></ellipse>
                    </g>
                    <g id="Group-6" transform="translate(264.000000, 44.833333)" fill="#FDC900">
                        <ellipse id="Oval-7" cx="2.5" cy="2.29166667" rx="1" ry="2.29166667"></ellipse>
                        <ellipse id="Oval-7" transform="translate(2.500000, 2.291667) scale(-1, 1) rotate(90.000000) translate(-2.500000, -2.291667) " cx="2.5" cy="2.29166667" rx="1" ry="2.29166667"></ellipse>
                    </g>
                    <g id="Group-6" transform="translate(293.000000, 68.833333)" fill="#FDC900">
                        <ellipse id="Oval-7" cx="2.5" cy="2.29166667" rx="1" ry="2.29166667"></ellipse>
                        <ellipse id="Oval-7" transform="translate(2.500000, 2.291667) scale(-1, 1) rotate(90.000000) translate(-2.500000, -2.291667) " cx="2.5" cy="2.29166667" rx="1" ry="2.29166667"></ellipse>
                    </g>
                </g>
            </g>
        </g>
    </g>
</svg>