<?xml version="1.0" encoding="UTF-8"?>
<svg width="24px" height="25px" viewBox="0 0 24 25" version="1.1" xmlns="http://www.w3.org/2000/svg" xmlns:xlink="http://www.w3.org/1999/xlink">
    <!-- Generator: Sketch 49 (51002) - http://www.bohemiancoding.com/sketch -->
    <title>宽带趸交设定</title>
    <desc>Created with Sketch.</desc>
    <defs></defs>
    <g id="Page-1" stroke="none" stroke-width="1" fill="none" fill-rule="evenodd">
        <g id="咔咔物业-首页-宽带缴费-变更套餐-" transform="translate(-21.000000, -345.000000)" fill="#92C5FF" fill-rule="nonzero">
            <g id="宽带趸交设定" transform="translate(21.750213, 345.500000)">
                <path d="M1.01700222,20.4675472 C1.01700222,21.4468754 1.80590545,22.2357786 2.78523359,22.2357786 L20.4675472,22.2357786 C21.4468754,22.2357786 22.2357786,21.4468754 22.2357786,20.4675472 L22.2357786,15.5981101 C22.2357786,14.618782 21.4468754,13.8298787 20.4675472,13.8298787 L15.1628532,13.8298787 L15.1628532,9.19167185 C15.1628532,8.57959176 14.6731891,8.08992769 14.061109,8.08992769 C13.4490289,8.08992769 12.9593648,8.57959176 12.9593648,9.19167185 L12.9593648,13.8298787 L2.78523359,13.8298787 C1.80590545,13.8298787 1.01700222,14.618782 1.01700222,15.5981101 L1.01700222,20.4675472 Z M3.22049054,18.0328287 C3.22049054,17.4207486 3.71015461,16.9310845 4.3222347,16.9310845 C4.93431479,16.9310845 5.42397886,17.4207486 5.42397886,18.0328287 C5.42397886,18.6449088 4.93431479,19.1345728 4.3222347,19.1345728 C3.71015461,19.1345728 3.22049054,18.6449088 3.22049054,18.0328287 Z M7.20581201,18.0328287 C7.20581201,17.4207486 7.69547608,16.9310845 8.30755616,16.9310845 C8.91963625,16.9310845 9.40930032,17.4207486 9.40930032,18.0328287 C9.40930032,18.6449088 8.91963625,19.1345728 8.30755616,19.1345728 C7.69547608,19.1345728 7.20581201,18.6449088 7.20581201,18.0328287 Z M14.061109,4.55346496 C11.4903726,4.55346496 9.40930032,6.63453726 9.40930032,9.19167185 C9.40930032,9.80375193 9.89896439,10.293416 10.5110445,10.293416 C11.1231246,10.293416 11.6127886,9.80375193 11.6127886,9.19167185 C11.6127886,7.84509565 12.700931,6.75695327 14.0475072,6.75695327 C15.3940834,6.75695327 16.4822258,7.84509565 16.4822258,9.19167185 C16.4822258,9.80375193 16.9718899,10.293416 17.5839699,10.293416 C18.19605,10.293416 18.6857141,9.80375193 18.6857141,9.19167185 C18.6993159,6.63453726 16.6182436,4.55346496 14.061109,4.55346496 Z M14.061109,1.01700222 C9.54531812,1.01700222 5.88643937,4.67588097 5.88643937,9.19167185 C5.88643937,9.80375193 6.37610344,10.293416 6.98818353,10.293416 C7.60026362,10.293416 8.08992769,9.80375193 8.08992769,9.19167185 C8.08992769,5.90004115 10.7558765,3.22049054 14.061109,3.22049054 C17.3527397,3.22049054 20.0322903,5.88643937 20.0322903,9.19167185 C20.0322903,9.80375193 20.5219544,10.293416 21.1340345,10.293416 C21.7461145,10.293416 22.2357786,9.80375193 22.2357786,9.19167185 C22.2357786,4.67588097 18.5768999,1.01700222 14.061109,1.01700222 Z" id="Shape"></path>
            </g>
        </g>
    </g>
</svg>