<?xml version="1.0" encoding="UTF-8"?>
<svg width="21px" height="24px" viewBox="0 0 21 24" version="1.1" xmlns="http://www.w3.org/2000/svg" xmlns:xlink="http://www.w3.org/1999/xlink">
    <!-- Generator: Sketch 49 (51002) - http://www.bohemiancoding.com/sketch -->
    <title>用户 (4)</title>
    <desc>Created with Sketch.</desc>
    <defs></defs>
    <g id="Page-1" stroke="none" stroke-width="1" fill="none" fill-rule="evenodd">
        <g id="咔咔物业-首页-宽带缴费-变更套餐-" transform="translate(-23.000000, -237.000000)" fill="#92C5FF" fill-rule="nonzero">
            <g id="用户-(4)" transform="translate(23.000000, 237.460938)">
                <path d="M6.28137617,13.5167044 C3.65397803,11.572242 2.74045023,8.05745763 4.08852186,5.07973065 C5.43659349,2.10200368 8.68046154,0.46934866 11.8751815,1.16066591 C15.0699014,1.85198315 17.3485771,4.6796818 17.3449698,7.94834239 C17.3632246,10.123051 16.3666056,12.1819578 14.6495901,13.5167044 C17.2759908,15.0180986 18.9040757,17.8045519 18.9224983,20.8297503 C18.9224983,20.9682889 18.8674641,21.1011533 18.7695025,21.1991149 C18.6715409,21.2970765 18.5386765,21.3521107 18.4001379,21.3521107 L2.54127558,21.3521107 C2.25278389,21.3521107 2.01891517,21.118242 2.01891517,20.8297503 C2.03732242,17.8072937 3.66055946,15.0223281 6.28137617,13.5167044 Z M10.4602595,11.8869399 C12.090024,11.8869399 13.4168195,10.9989272 13.4168195,9.90197035 C13.4168195,9.28558505 12.090024,9.16021855 10.4602595,9.16021855 C8.83049502,9.16021855 7.4305691,9.3378211 7.4305691,9.88107594 C7.4305691,10.98848 8.7991534,11.8764927 10.4393651,11.8764927 L10.4602595,11.8869399 Z" id="Shape"></path>
            </g>
        </g>
    </g>
</svg>