<?xml version="1.0" encoding="UTF-8"?>
<svg width="16px" height="19px" viewBox="0 0 16 19" version="1.1" xmlns="http://www.w3.org/2000/svg" xmlns:xlink="http://www.w3.org/1999/xlink">
    <!-- Generator: Sketch 49 (51002) - http://www.bohemiancoding.com/sketch -->
    <title>取消</title>
    <desc>Created with Sketch.</desc>
    <defs></defs>
    <g id="Page-1" stroke="none" stroke-width="1" fill="none" fill-rule="evenodd">
        <g id="咔咔物业-设施维修" transform="translate(-107.000000, -498.000000)" fill-rule="nonzero">
            <g id="取消" transform="translate(108.000000, 498.500000)">
                <path d="M0,9.15444613 C4.83893648e-16,13.1057376 3.20315464,16.3088923 7.15444613,16.3088923 C11.1057376,16.3088923 14.3088923,13.1057376 14.3088923,9.15444613 C14.3088923,5.20315464 11.1057376,2 7.15444613,2 C3.20315464,2 4.83893648e-16,5.20315464 0,9.15444613 Z" id="Shape" fill="#FF6767"></path>
                <path d="M4.14957875,12.1593135 C4.00648983,12.0162246 4.00648983,11.8015912 4.14957875,11.6585023 L9.73004674,6.07803429 C9.87313566,5.93494537 10.087769,5.93494537 10.230858,6.07803429 C10.3739469,6.22112322 10.3739469,6.4357566 10.230858,6.57884552 L4.65038998,12.1593135 C4.50730106,12.3024024 4.29266768,12.3024024 4.14957875,12.1593135 Z" id="Shape" fill="#FFFFFF"></path>
                <path d="M4.14957875,6.14957875 C4.29266768,6.00648983 4.50730106,6.00648983 4.65038998,6.14957875 L10.230858,11.7300467 C10.3739469,11.8731357 10.3739469,12.087769 10.230858,12.230858 C10.087769,12.3739469 9.87313566,12.3739469 9.73004674,12.230858 L4.14957875,6.65038998 C4.00648983,6.50730106 4.00648983,6.29266768 4.14957875,6.14957875 Z" id="Shape" fill="#FFFFFF"></path>
            </g>
        </g>
    </g>
</svg>