<?xml version="1.0" encoding="UTF-8"?>
<svg width="139px" height="126px" viewBox="0 0 139 126" version="1.1" xmlns="http://www.w3.org/2000/svg" xmlns:xlink="http://www.w3.org/1999/xlink">
    <!-- Generator: Sketch 49 (51002) - http://www.bohemiancoding.com/sketch -->
    <title>户型解析 车位70_70  (1)</title>
    <desc>Created with Sketch.</desc>
    <defs></defs>
    <g id="Page-1" stroke="none" stroke-width="1" fill="none" fill-rule="evenodd">
        <g id="咔咔物业-首页-车位租用-我的车位-无租用" transform="translate(-118.000000, -164.000000)" fill="#DADADA" fill-rule="nonzero">
            <g id="户型解析-车位70_70--(1)" transform="translate(118.500000, 164.714725)">
                <path d="M74.0375031,99.4169942 C47.4889468,99.4169942 25.9671736,77.895221 25.9671736,51.3466647 C25.9671736,24.7981085 47.4889468,3.27633533 74.0375031,3.27633533 C100.586059,3.27633533 122.107832,24.7981085 122.107832,51.3466647 C122.107832,77.895221 100.586059,99.4169942 74.0375031,99.4169942 Z M103.534831,41.5197159 L97.6922255,41.5197159 C97.414791,41.5197159 97.1593315,41.6007488 96.9299674,41.7229848 L94.2970867,33.9040024 C93.4537958,29.4568102 90.2784072,27.3115 86.3750964,27.3115 L61.6339846,27.3115 C57.1524564,27.3115 54.4330492,30.1929729 53.7119943,33.899882 L51.0708731,41.7449598 C50.8252147,41.6000583 50.5457418,41.5223743 50.2605447,41.5197159 L44.4179396,41.5197159 C43.5210846,41.5197159 42.7917889,42.2366505 42.7917889,43.1238916 L42.7917889,44.5151842 C42.7917889,45.3996783 43.5197111,46.1179864 44.4179396,46.1179864 L46.6305481,46.490188 C45.9328416,47.8361572 45.5331711,49.3744078 45.5331712,51.1667444 L44.7146021,60.3962476 C44.7146021,60.6626946 44.7338302,60.9346353 44.7681662,61.2093229 C44.7344319,61.3808309 44.7165021,61.555072 44.7146021,61.7298559 L44.7146021,72.8327285 C44.7146021,74.4121822 46.0152479,75.6922264 47.61805,75.6922264 L52.0501344,75.6922264 C53.6543099,75.6922264 54.9535823,74.4121822 54.9535823,72.8327285 L54.9535823,69.2631632 L93.0527519,69.2631632 L93.0527519,72.8313551 C93.0527519,74.4108088 94.3533977,75.6922264 95.9575733,75.6922264 L100.388284,75.6922264 C101.991086,75.6922264 103.291732,74.4121822 103.291732,72.8313551 L103.291732,61.7298559 C103.291732,61.551309 103.269757,61.3768823 103.238168,61.2079495 C103.271131,60.9346353 103.293106,60.6626946 103.293106,60.3948742 L102.473163,51.1667444 C102.473163,49.3716609 102.072119,47.82929 101.371666,46.4805739 L103.534831,46.1179864 C104.434433,46.1179864 105.160981,45.3996783 105.160981,44.5151842 L105.160981,43.1238916 C105.160981,42.2366506 104.433059,41.519716 103.534831,41.5197159 Z M55.6650232,39.8757107 L57.5988239,34.8022308 L57.6262926,34.6841151 C57.8185739,33.6581569 58.24846,33.4754897 58.8829884,32.683016 L89.1618022,32.683016 C89.8018242,33.4974647 90.2014948,33.7034805 90.3772947,34.6731276 L92.3426845,39.8757107 L93.062366,42.7036195 C92.8975534,44.7720172 90.3772947,46.4050349 88.2786815,46.4050349 L59.7290262,46.4050349 C57.6290395,46.4050349 55.1074073,44.7706437 54.9453417,42.7036195 L55.6650232,39.8757107 Z M57.0206064,64.0028958 C54.5923681,64.0028958 52.6256049,62.0636013 52.6256049,59.6696989 C52.6256049,57.2757965 54.592368,55.3365021 57.0206064,55.3365021 C59.4488448,55.3365021 61.4169814,57.2757965 61.4169814,59.6696989 C61.4169814,62.0636013 59.4488448,64.0028958 57.0206064,64.0028958 Z M81.5749307,60.8069056 C81.5723903,61.1511327 81.4332054,61.480251 81.1879971,61.7218533 C80.9427888,61.9634556 80.6116448,62.0977497 80.2674178,62.0951904 L67.9339447,62.0951904 C67.5894807,62.098116 67.2579834,61.9639841 67.0124773,61.7223422 C66.7669713,61.4807004 66.6275975,61.1513726 66.6250583,60.8069056 L66.6250583,57.1837762 C66.6250583,56.4723353 67.2115163,55.8954914 67.9339447,55.8954914 L80.2674178,55.8954914 C80.9898462,55.8954914 81.5749307,56.4723353 81.5749307,57.1837762 L81.5749307,60.8055321 L81.5749307,60.8069056 Z M90.9857277,64.0028958 C88.5574894,64.0028958 86.5879793,62.0636013 86.5879794,59.6696989 C86.5879794,57.2757965 88.5574894,55.3365021 90.9857277,55.3365021 C93.4139661,55.3365021 95.3821027,57.2757965 95.3821028,59.6696989 C95.3821028,62.0636013 93.4139662,64.0028958 90.9871012,64.0028958 L90.9857277,64.0028958 Z M73.5,117.285275 C50.3040405,117.285275 31.5,115.270557 31.5,112.785275 C31.5,110.299994 50.3040405,108.285275 73.5,108.285275 C96.6959595,108.285275 115.5,110.299994 115.5,112.785275 C115.5,115.270557 96.6959595,117.285275 73.5,117.285275 Z" id="Shape"></path>
            </g>
        </g>
    </g>
</svg>