<?xml version="1.0" encoding="UTF-8"?>
<svg width="48px" height="44px" viewBox="0 0 48 44" version="1.1" xmlns="http://www.w3.org/2000/svg" xmlns:xlink="http://www.w3.org/1999/xlink">
    <!-- Generator: Sketch 49 (51002) - http://www.bohemiancoding.com/sketch -->
    <title>快递</title>
    <desc>Created with Sketch.</desc>
    <defs></defs>
    <g id="Page-1" stroke="none" stroke-width="1" fill="none" fill-rule="evenodd">
        <g id="咔咔物业-我的快递" transform="translate(-9.000000, -116.000000)" fill="#FFCC90" fill-rule="nonzero">
            <g id="Group-3" transform="translate(-2.000000, 101.000000)">
                <g id="Group-14" transform="translate(11.000000, 15.421875)">
                    <g id="快递" transform="translate(0.000000, 0.942101)">
                        <path d="M12.3078822,29.6604794 C14.5694586,29.6604794 16.5079527,31.5753102 16.5079527,34.0533266 C16.5079527,36.4187059 14.6771527,38.4461738 12.3078822,38.4461738 C10.0463057,38.4461738 8.10781165,36.531343 8.10781165,34.0533266 C8.10781165,31.5753102 10.0463057,29.6604794 12.3078822,29.6604794 Z M36.1082818,29.6604794 C38.3698582,29.6604794 40.3083523,31.5753102 40.3083523,34.0533266 C40.3083523,36.4187059 38.4775524,38.4461738 36.1082818,38.4461738 C33.8467054,38.4461738 31.9082113,36.531343 31.9082113,34.0533266 C31.9082113,31.5753102 33.8467054,29.6604794 36.1082818,29.6604794 Z M34.0620936,22.3390674 L34.0620936,13.2154617 L38.3698582,13.2154617 C38.6929406,13.2154617 39.0160229,13.6660101 39.0160229,13.6660101 L42.6776229,20.874785 C43.0007052,21.3253334 43.3237876,22.0011561 43.3237876,22.4517045 L34.0620936,22.4517045 L34.0620936,22.3390674 Z M44.9391993,18.73468 L41.0622112,11.413268 C40.3083523,10.399534 39.7698818,9.61107425 38.4775524,9.61107425 L32.3389877,9.61107425 L32.3389877,4.09185595 C32.3389877,3.078122 31.5851289,2.28966225 30.6158819,2.28966225 L2.72310584,2.28966225 C1.75385881,2.28966225 1,3.078122 1,4.09185595 L1,31.5753102 C1,32.5890442 1.75385881,33.3775039 2.72310584,33.3775039 L6.16931756,33.3775039 C6.60009403,30.2236649 9.18475279,27.7456486 12.3078822,27.7456486 C15.4310116,27.7456486 18.0156703,30.2236649 18.4464468,33.3775039 L30.6158819,33.3775039 C31.0466584,30.2236649 33.6313171,27.7456486 36.7544465,27.7456486 C39.8775759,27.7456486 42.4622347,30.2236649 42.8930111,33.3775039 L44.616117,33.3775039 C45.585364,33.3775039 46.3392228,32.5890442 46.3392228,31.5753102 L46.3392228,22.4517045 C46.2315287,20.6495108 44.9391993,18.73468 44.9391993,18.73468 Z" id="Shape"></path>
                    </g>
                </g>
            </g>
        </g>
    </g>
</svg>