<?xml version="1.0" encoding="UTF-8"?>
<svg width="49px" height="45px" viewBox="0 0 49 45" version="1.1" xmlns="http://www.w3.org/2000/svg" xmlns:xlink="http://www.w3.org/1999/xlink">
    <!-- Generator: Sketch 49 (51002) - http://www.bohemiancoding.com/sketch -->
    <title>快递</title>
    <desc>Created with Sketch.</desc>
    <defs></defs>
    <g id="Page-1" stroke="none" stroke-width="1" fill="none" fill-rule="evenodd">
        <g id="咔咔物业-我的快递" transform="translate(-7.000000, -205.000000)" fill="#BDBDBD" fill-rule="nonzero">
            <g id="Group-3-Copy" transform="translate(-3.000000, 180.824219)">
                <g id="Group-14" transform="translate(10.000000, 25.105000)">
                    <g id="快递" transform="translate(0.000000, 0.942101)">
                        <path d="M13.3078822,29.6604794 C15.5694586,29.6604794 17.5079527,31.5753102 17.5079527,34.0533266 C17.5079527,36.4187059 15.6771527,38.4461738 13.3078822,38.4461738 C11.0463057,38.4461738 9.10781165,36.531343 9.10781165,34.0533266 C9.10781165,31.5753102 11.0463057,29.6604794 13.3078822,29.6604794 Z M37.1082818,29.6604794 C39.3698582,29.6604794 41.3083523,31.5753102 41.3083523,34.0533266 C41.3083523,36.4187059 39.4775524,38.4461738 37.1082818,38.4461738 C34.8467054,38.4461738 32.9082113,36.531343 32.9082113,34.0533266 C32.9082113,31.5753102 34.8467054,29.6604794 37.1082818,29.6604794 Z M35.0620936,22.3390674 L35.0620936,13.2154617 L39.3698582,13.2154617 C39.6929406,13.2154617 40.0160229,13.6660101 40.0160229,13.6660101 L43.6776229,20.874785 C44.0007052,21.3253334 44.3237876,22.0011561 44.3237876,22.4517045 L35.0620936,22.4517045 L35.0620936,22.3390674 Z M45.9391993,18.73468 L42.0622112,11.413268 C41.3083523,10.399534 40.7698818,9.61107425 39.4775524,9.61107425 L33.3389877,9.61107425 L33.3389877,4.09185595 C33.3389877,3.078122 32.5851289,2.28966225 31.6158819,2.28966225 L3.72310584,2.28966225 C2.75385881,2.28966225 2,3.078122 2,4.09185595 L2,31.5753102 C2,32.5890442 2.75385881,33.3775039 3.72310584,33.3775039 L7.16931756,33.3775039 C7.60009403,30.2236649 10.1847528,27.7456486 13.3078822,27.7456486 C16.4310116,27.7456486 19.0156703,30.2236649 19.4464468,33.3775039 L31.6158819,33.3775039 C32.0466584,30.2236649 34.6313171,27.7456486 37.7544465,27.7456486 C40.8775759,27.7456486 43.4622347,30.2236649 43.8930111,33.3775039 L45.616117,33.3775039 C46.585364,33.3775039 47.3392228,32.5890442 47.3392228,31.5753102 L47.3392228,22.4517045 C47.2315287,20.6495108 45.9391993,18.73468 45.9391993,18.73468 Z" id="Shape"></path>
                    </g>
                </g>
            </g>
        </g>
    </g>
</svg>