<?xml version="1.0" encoding="UTF-8"?>
<svg width="35px" height="26px" viewBox="0 0 35 26" version="1.1" xmlns="http://www.w3.org/2000/svg" xmlns:xlink="http://www.w3.org/1999/xlink">
    <!-- Generator: Sketch 49 (51002) - http://www.bohemiancoding.com/sketch -->
    <title>户型解析 车位70_70  (1)</title>
    <desc>Created with Sketch.</desc>
    <defs></defs>
    <g id="Page-1" stroke="none" stroke-width="1" fill="none" fill-rule="evenodd">
        <g id="咔咔物业-首页-车位租用-copy" transform="translate(-124.000000, -631.000000)" fill="#FFFFFF" fill-rule="nonzero">
            <g id="Group-4" transform="translate(124.000000, 629.000000)">
                <g id="户型解析-车位70_70--(1)" transform="translate(0.535156, 2.000000)">
                    <path d="M18.616332,25.232664 C12.2007978,25.232664 7,20.0318662 7,13.616332 C7,7.20079777 12.2007978,2 18.616332,2 C25.0318662,2 30.232664,7.20079777 30.232664,13.616332 C30.232664,20.0318662 25.0318662,25.232664 18.616332,25.232664 Z M25.7444452,11.2416218 L24.332563,11.2416218 C24.2655202,11.2416218 24.2037877,11.2612037 24.1483612,11.2907423 L23.5121181,9.40126296 C23.3083344,8.32658631 22.5409927,7.808166 21.5977466,7.808166 L15.6189864,7.808166 C14.5360124,7.808166 13.8788599,8.50448213 13.7046149,9.40026727 L13.0663805,11.2960526 C13.0070164,11.2610368 12.939481,11.2422642 12.8705623,11.2416218 L11.4586801,11.2416218 C11.2419526,11.2416218 11.0657162,11.4148711 11.0657162,11.6292754 L11.0657162,11.9654853 C11.0657162,12.1792258 11.2416207,12.352807 11.4586801,12.352807 L11.9933633,12.4427506 C11.8247605,12.7680079 11.728179,13.1397305 11.728179,13.5728537 L11.5303695,15.8031895 C11.5303695,15.8675771 11.535016,15.9332924 11.5433134,15.9996714 C11.5351614,16.0411168 11.5308286,16.0832227 11.5303695,16.1254597 L11.5303695,18.8085005 C11.5303695,19.19018 11.8446742,19.4995063 12.2319959,19.4995063 L13.3030217,19.4995063 C13.6906753,19.4995063 14.0046482,19.19018 14.0046482,18.8085005 L14.0046482,17.9459049 L23.211421,17.9459049 L23.211421,18.8081686 C23.211421,19.1898481 23.5257258,19.4995063 23.9133794,19.4995063 L24.9840733,19.4995063 C25.371395,19.4995063 25.6856997,19.19018 25.6856997,18.8081686 L25.6856997,16.1254597 C25.6856997,16.0823133 25.6803894,16.0401626 25.6727558,15.9993395 C25.6807213,15.9332924 25.6860316,15.8675771 25.6860316,15.8028576 L25.4878902,13.5728537 C25.4878902,13.1390667 25.3909768,12.7663484 25.2217103,12.4404273 L25.7444452,12.352807 C25.9618366,12.352807 26.1374091,12.1792258 26.1374091,11.9654853 L26.1374091,11.6292754 C26.1374091,11.4148711 25.9615047,11.2416219 25.7444452,11.2416218 Z M14.1765699,10.8443433 L14.6438784,9.61832243 L14.6505163,9.58977942 C14.6969816,9.3418537 14.8008648,9.29771164 14.9542004,9.10620813 L22.2711619,9.10620813 C22.4258251,9.30302198 22.5224066,9.35280627 22.5648892,9.58712427 L23.0398312,10.8443433 L23.2137443,11.5277155 C23.1739169,12.0275497 22.5648892,12.4221731 22.0577533,12.4221731 L15.1586478,12.4221731 C14.65118,12.4221731 14.0418205,12.0272178 14.0026568,11.5277155 L14.1765699,10.8443433 Z M14.5041505,16.6747463 C13.9173598,16.6747463 13.4420858,16.2061102 13.4420858,15.6276169 C13.4420858,15.0491236 13.9173597,14.5804875 14.5041505,14.5804875 C15.0909412,14.5804875 15.566547,15.0491236 15.566547,15.6276169 C15.566547,16.2061102 15.0909412,16.6747463 14.5041505,16.6747463 Z M20.4377728,15.9024261 C20.437159,15.9856096 20.4035245,16.065142 20.3442692,16.1235259 C20.285014,16.1819097 20.2049921,16.2143623 20.1218086,16.2137438 L17.1413897,16.2137438 C17.058149,16.2144508 16.9780418,16.1820374 16.9187145,16.123644 C16.8593873,16.0652506 16.8257072,15.9856676 16.8250936,15.9024261 L16.8250936,15.0268866 C16.8250936,14.8549649 16.9668128,14.7155689 17.1413897,14.7155689 L20.1218086,14.7155689 C20.2963855,14.7155689 20.4377728,14.8549649 20.4377728,15.0268866 L20.4377728,15.9020942 L20.4377728,15.9024261 Z M22.7119187,16.6747463 C22.125128,16.6747463 21.6491903,16.2061102 21.6491903,15.6276169 C21.6491903,15.0491236 22.125128,14.5804875 22.7119187,14.5804875 C23.2987095,14.5804875 23.7743153,15.0491236 23.7743153,15.6276169 C23.7743153,16.2061102 23.2987095,16.6747463 22.7122507,16.6747463 L22.7119187,16.6747463 Z" id="Shape"></path>
                </g>
            </g>
        </g>
    </g>
</svg>