<?xml version="1.0" encoding="UTF-8"?>
<svg width="36px" height="31px" viewBox="0 0 36 31" version="1.1" xmlns="http://www.w3.org/2000/svg" xmlns:xlink="http://www.w3.org/1999/xlink">
    <!-- Generator: Sketch 49 (51002) - http://www.bohemiancoding.com/sketch -->
    <title>停车位</title>
    <desc>Created with Sketch.</desc>
    <defs></defs>
    <g id="Page-1" stroke="none" stroke-width="1" fill="none" fill-rule="evenodd">
        <g id="咔咔物业-首页-车位租用-copy" transform="translate(-41.000000, -130.000000)" fill="#25CD81" fill-rule="nonzero">
            <g id="Group-2" transform="translate(-6.000000, 116.000000)">
                <g id="停车位" transform="translate(50.198413, 14.570312)">
                    <path d="M14.5484045,8.92259432 L12.9436423,8.92259432 L12.9436423,14.4739764 L14.5484045,14.4739764 C16.7021274,14.4739764 17.7789888,13.5375142 17.7789888,11.6645896 C17.7649489,9.83659275 16.6880875,8.92259432 14.5484045,8.92259432 Z" id="Shape"></path>
                    <path d="M14.1272071,0.347014603 C6.50421962,0.347014603 0.324567287,6.52666693 0.324567287,14.1496544 C0.324567287,21.7726419 6.50421962,27.9522942 14.1272071,27.9522942 C21.7501946,27.9522942 27.9298469,21.7726419 27.9298469,14.1496544 C27.9298469,6.52666693 21.7501946,0.347014603 14.1272071,0.347014603 Z M19.6743772,15.7544166 C18.3029056,16.8423044 16.5779385,17.3852941 14.8306068,17.2791514 L12.9436423,17.2791514 L12.9436423,23.2727908 L9.28343664,23.2727908 L9.28343664,6.08372366 L15.1802007,6.08372366 C19.4567586,6.08372366 21.5950375,7.89627659 21.5950375,11.5213825 C21.6552688,13.1557531 20.9439659,14.723427 19.6743772,15.7544166 Z" id="Shape"></path>
                </g>
            </g>
        </g>
    </g>
</svg>