<?xml version="1.0" encoding="UTF-8"?>
<svg width="20px" height="23px" viewBox="0 0 20 23" version="1.1" xmlns="http://www.w3.org/2000/svg" xmlns:xlink="http://www.w3.org/1999/xlink">
    <!-- Generator: Sketch 49 (51002) - http://www.bohemiancoding.com/sketch -->
    <title>icon-物业费</title>
    <desc>Created with Sketch.</desc>
    <defs></defs>
    <g id="Page-1" stroke="none" stroke-width="1" fill="none" fill-rule="evenodd">
        <g id="咔咔物业-个人中心-我的账单-全部" transform="translate(-17.000000, -306.000000)" fill="#B8B9FF" fill-rule="nonzero">
            <g id="Group-8" transform="translate(10.000000, 283.800000)">
                <g id="Group-3-Copy-2" transform="translate(7.500000, 23.599609)">
                    <g id="icon-物业费" transform="translate(0.000000, 0.500000)">
                        <path d="M17.2351336,8.92923141 C16.9508595,8.65284912 11.6182969,3.47491741 10.6855816,2.55933544 C10.3127167,2.19136306 9.89203224,2.00520241 9.43927438,2.00520241 C8.68973923,2.00520241 8.15926292,2.52128225 8.10816293,2.57320703 L2.35815886,8.18297671 C2.05650775,8.47375549 1.56243501,8.95180089 1.51842079,8.99120374 C1.31297111,9.17110343 1.08358355,9.61298895 1.29392578,10.09349 C1.49176483,10.545423 1.93693078,10.6723482 2.17499747,10.6750288 L2.71634612,10.6750288 C2.72613123,10.6750288 2.73481036,10.6756099 2.73917803,10.677222 C2.74352697,10.6875507 2.74678866,10.7005788 2.74896314,10.711751 L2.74896314,14.4919876 C2.74896314,16.1149651 3.76100899,16.9954931 3.90233063,17.1096527 C4.55294628,17.6792694 5.33344884,17.9793084 6.16014009,17.9793084 L12.6683584,17.972785 C13.4891074,17.972785 14.2946163,17.6754641 14.9386898,17.133553 C16.0763112,16.1780433 16.1078222,14.7942198 16.1083658,14.7289858 L16.1083658,10.6908124 C16.1083658,10.6880943 16.1083658,10.6845889 16.1083658,10.6826769 C16.1165201,10.6793777 16.1230247,10.677222 16.1273924,10.6750288 L16.6285134,10.6750288 C17.0318209,10.6750288 17.3715252,10.4391741 17.5351351,10.0429336 C17.7395163,9.54396834 17.4514556,9.11621687 17.2351336,8.92923141 Z" id="Shape"></path>
                    </g>
                </g>
            </g>
        </g>
    </g>
</svg>