<?xml version="1.0" encoding="UTF-8"?>
<svg width="20px" height="23px" viewBox="0 0 20 23" version="1.1" xmlns="http://www.w3.org/2000/svg" xmlns:xlink="http://www.w3.org/1999/xlink">
    <!-- Generator: Sketch 49 (51002) - http://www.bohemiancoding.com/sketch -->
    <title>电费 (2)</title>
    <desc>Created with Sketch.</desc>
    <defs></defs>
    <g id="Page-1" stroke="none" stroke-width="1" fill="none" fill-rule="evenodd">
        <g id="咔咔物业-个人中心-我的账单-全部" transform="translate(-17.000000, -185.000000)" fill="#FFF1B4" fill-rule="nonzero">
            <g id="Group-6" transform="translate(10.000000, 162.600000)">
                <g id="电费" transform="translate(7.000000, 23.302734)">
                    <g id="电费-(2)" transform="translate(0.241482, 0.241483)">
                        <path d="M14.2028666,1.01204954 L8.00747752,1.01204954 C7.27762117,1.01204954 6.45326712,1.60764647 6.18453589,2.33905335 L3.10302643,10.7235654 C2.8342952,11.454951 3.20427855,12.0505479 3.93392248,12.0505479 L6.06127891,12.0505479 L3.90259315,18.3834249 C3.65113022,19.1209065 4.17123942,19.7102375 4.90071344,19.7102375 C5.43715636,19.6716653 5.85155299,18.9907252 6.3385487,18.3834249 L13.9504478,8.88976998 C14.4374435,8.28246969 13.8493656,7.56293609 13.1195518,7.56293609 L11.5352227,7.56293609 L15.0337626,2.33905337 C15.4670418,1.69177897 14.9325105,1.01204954 14.2028666,1.01204954 Z" id="Shape"></path>
                    </g>
                </g>
            </g>
        </g>
    </g>
</svg>