<?xml version="1.0" encoding="UTF-8"?>
<svg width="22px" height="18px" viewBox="0 0 22 18" version="1.1" xmlns="http://www.w3.org/2000/svg" xmlns:xlink="http://www.w3.org/1999/xlink">
    <!-- Generator: Sketch 49 (51002) - http://www.bohemiancoding.com/sketch -->
    <title>宽带</title>
    <desc>Created with Sketch.</desc>
    <defs></defs>
    <g id="Page-1" stroke="none" stroke-width="1" fill="none" fill-rule="evenodd">
        <g id="咔咔物业-个人中心-我的账单-全部" transform="translate(-16.000000, -369.000000)" fill="#CAB9FF" fill-rule="nonzero">
            <g id="Group-10" transform="translate(10.000000, 344.400000)">
                <g id="Group-3-Copy-2" transform="translate(6.000000, 25.000000)">
                    <g id="Group-9">
                        <g id="宽带" transform="translate(0.117647, 0.000000)">
                            <path d="M17.7686147,6.13158567 L15.6516768,6.13158567 L15.6516768,0.721633259 C15.6516768,0.331175823 15.3364883,0.0159872914 14.9460308,0.0159872914 C14.5555734,0.0159872914 14.2403849,0.331175823 14.2403849,0.721633259 L14.2403849,6.13158567 L5.06698729,6.13158567 C3.38049343,6.13158567 2.0091881,7.502891 2.0091881,9.18938486 L2.0091881,12.0119687 C2.0091881,13.6984626 3.38049343,15.0697679 5.06698729,15.0697679 L17.7686147,15.0697679 C19.4551086,15.0697679 20.8264139,13.6984626 20.8264139,12.0119687 L20.8264139,9.18938486 C20.8264139,7.502891 19.4551086,6.13158567 17.7686147,6.13158567 Z" id="Shape"></path>
                        </g>
                    </g>
                </g>
            </g>
        </g>
    </g>
</svg>