<?xml version="1.0" encoding="UTF-8"?>
<svg width="22px" height="25px" viewBox="0 0 22 25" version="1.1" xmlns="http://www.w3.org/2000/svg" xmlns:xlink="http://www.w3.org/1999/xlink">
    <!-- Generator: Sketch 49 (51002) - http://www.bohemiancoding.com/sketch -->
    <title>燃气</title>
    <desc>Created with Sketch.</desc>
    <defs></defs>
    <g id="Page-1" stroke="none" stroke-width="1" fill="none" fill-rule="evenodd">
        <g id="咔咔物业-个人中心-我的账单-全部" transform="translate(-16.000000, -245.000000)" fill="#FFC0C0" fill-rule="nonzero">
            <g id="Group-7" transform="translate(10.000000, 223.200000)">
                <g id="Group-4" transform="translate(6.500000, 22.000000)">
                    <g id="燃气" transform="translate(0.000000, 0.588235)">
                        <path d="M13.6705219,11.105094 C11.8250543,9.02686479 11.8250543,6.5329897 11.8250543,3 C6.08186782,5.28605217 7.51792424,11.5207399 7.31321866,13.5989691 C5.87716226,12.3520316 5.46671197,9.44251063 5.46671197,9.44251063 C3.82698912,10.2738023 3.00608856,12.3520316 3.00608856,14.014615 C3.00608856,18.1710734 6.4923181,21.7040631 10.7994482,21.7040631 C15.1065783,21.7040631 18.5928078,18.3788964 18.5928078,14.014615 C18.5928078,11.5207399 16.7473403,10.2738023 16.7473403,6.94863555 C14.0809722,7.77992725 13.671561,9.85815649 13.671561,11.105094 L13.6705219,11.105094 Z" id="Shape"></path>
                    </g>
                </g>
            </g>
        </g>
    </g>
</svg>