<?xml version="1.0" encoding="UTF-8"?>
<svg width="21px" height="21px" viewBox="0 0 21 21" version="1.1" xmlns="http://www.w3.org/2000/svg" xmlns:xlink="http://www.w3.org/1999/xlink">
    <!-- Generator: Sketch 49 (51002) - http://www.bohemiancoding.com/sketch -->
    <title>停车</title>
    <desc>Created with Sketch.</desc>
    <defs></defs>
    <g id="Page-1" stroke="none" stroke-width="1" fill="none" fill-rule="evenodd">
        <g id="咔咔物业-首页-车位租用-我的车位-租用记录" transform="translate(-20.000000, -93.000000)" fill="#A3CFB3" fill-rule="nonzero">
            <g id="停车" transform="translate(20.000000, 93.377016)">
                <path d="M8.6018574,1.17133988 C10.1144549,0.958116488 11.3635611,0.965496332 12.7461034,1.17133988 C13.692153,1.37181276 14.6509532,1.52870206 15.5815669,1.78684205 C16.2701527,1.97792591 16.7683308,2.44592779 17.0143771,3.16032372 C17.405277,4.28907278 17.8149356,5.41113747 18.2460576,6.52446999 C18.3191413,6.71085935 18.5578464,6.98509203 18.6912631,6.97000392 C19.5977668,6.86776796 20.024175,7.37195426 20.301093,8.11820716 C20.367473,8.34682777 20.3305931,8.5754677 20.301093,8.72700565 C19.9236198,8.83177238 19.5454704,8.93568909 19.1981348,9.0315691 C19.247089,9.42447817 19.3355892,9.82341476 19.3376177,10.2223707 C19.3530342,12.0420431 19.3637756,13.862411 19.3275525,15.6820835 C19.3215057,16.0066227 19.1337833,16.5121614 19.0030326,16.5939579 C18.8796617,16.8065051 16.1280038,16.7964206 15.9141042,16.6489396 C15.1993799,16.1842993 15.6392147,15.4045279 15.4098986,14.7722376 C12.258628,14.7722376 9.10602438,14.7722376 6.06272745,14.7722376 C5.88168945,15.4413885 5.77375441,16.565134 5.5558365,16.6489396 C5.07979793,16.8319868 2.5292698,16.8386905 2.38712087,16.6489396 C2.19402783,16.5121614 2.06262024,15.9603538 2.03713853,15.6063145 C1.98416593,14.8399699 2.014999,14.0675977 2.02237884,13.297853 C2.03646237,11.8684043 2.05790642,10.4389169 2.07668445,9.00005987 C1.8084986,8.92964225 1.42766388,8.8284302 1.046153,8.72700565 C1.0253658,8.59022739 0.997874914,8.42261607 1.046153,8.23991663 C1.31099667,7.45243706 1.69853507,6.84429542 2.69151045,6.97102782 C2.81151985,6.98644435 3.03277993,6.72998512 3.09848372,6.55800771 C3.43774403,5.66860129 3.80180989,4.78056652 4.04385718,3.86266462 C4.45017361,2.31921471 5.56385387,1.69834188 6.98594206,1.42478536 C7.5210387,1.3215255 8.06345722,1.25446938 8.6018574,1.17133988 Z M4.33356435,7.26668523 C8.63002445,8.15642007 12.7481126,8.1775357 16.9721652,7.26668523 C16.617469,6.17245916 16.2614399,5.20092783 15.993254,4.20661944 C15.7626049,3.35241217 15.2107974,2.93203154 14.3887755,2.89548006 C12.3853797,2.80529914 10.3813078,2.73356783 8.37725514,2.71847972 C7.71749323,2.71343747 7.04768547,2.86966992 6.39999791,3.02422163 C6.13314507,3.08824467 5.78181041,3.29175063 5.69062491,3.52071898 C5.21257717,4.71617641 4.80492773,5.94115322 4.33356435,7.26668523 Z M5.15827156,11.9173199 C5.15960457,11.8938667 5.15691923,11.9401163 5.15827156,11.9173199 C5.50222638,11.9173199 5.8636069,11.9052455 6.19013602,11.8288004 C6.4274888,11.7731811 6.7285362,11.5807449 6.80362901,11.3762344 C6.8566016,11.2314194 6.62863784,10.8592976 6.44021999,10.7721304 C5.65507802,10.4080452 4.84916815,10.0775171 4.02648943,9.80732206 C3.61683082,9.67253366 3.16022713,9.69801537 3.02814338,10.2826651 C2.83570719,11.1375293 3.01539286,11.614244 3.65436756,11.7476608 C4.14582267,11.8502831 4.65607512,11.8643473 5.15827156,11.9173199 Z M16.2909399,11.9146539 C16.7348124,11.8610051 17.2846108,11.8415702 17.8115935,11.7188562 C18.5316885,11.553254 18.3794937,10.9451124 18.3627248,10.4301847 C18.3486413,9.98969307 18.0750848,9.65848877 17.6781574,9.78182103 C16.686515,10.0896107 15.7022525,10.4523243 14.7695909,10.9055665 C14.3411543,11.114076 14.4947014,11.6893368 14.9821381,11.7959775 C15.373038,11.8810968 15.7840683,11.8730601 16.2909399,11.9146539 Z" id="Shape"></path>
            </g>
        </g>
    </g>
</svg>