<?xml version="1.0" encoding="UTF-8"?>
<svg width="173px" height="170px" viewBox="0 0 173 170" version="1.1" xmlns="http://www.w3.org/2000/svg" xmlns:xlink="http://www.w3.org/1999/xlink">
    <!-- Generator: Sketch 49 (51002) - http://www.bohemiancoding.com/sketch -->
    <title>Group 2</title>
    <desc>Created with Sketch.</desc>
    <defs></defs>
    <g id="Page-1" stroke="none" stroke-width="1" fill="none" fill-rule="evenodd">
        <g id="咔咔物业-首页-立即缴费-copy-2" transform="translate(-103.000000, -114.000000)">
            <g id="Group-2" transform="translate(103.000000, 114.000000)">
                <circle id="Oval-4" fill="#FFED95" opacity="0.266304348" cx="84.5" cy="85.125" r="80.875"></circle>
                <circle id="Oval-4" fill="#FFDF46" opacity="0.463711504" cx="84.5" cy="85.125" r="63.7265625"></circle>
                <circle id="Oval-4" fill="#FFDA2A" opacity="0.597599638" cx="84.5" cy="85.125" r="51.9804688"></circle>
                <path d="M110.568368,66.2909146 C109.849229,65.6476916 108.894727,65.2545505 107.848139,65.2545505 C106.633911,65.2545505 105.543456,65.7839351 104.794588,66.6245988 L80.0219107,94.4638785 L64.6089943,80.7487489 C63.8116908,80.0372229 62.7540816,79.6024619 61.5951056,79.6024619 C59.0904442,79.6024619 57.0599159,81.6329902 57.0599159,84.1376516 C57.0599159,85.4835546 57.6459296,86.6924165 58.5769389,87.5228564 L76.8893256,103.811531 C77.6276797,104.543141 78.643959,104.99545 79.7661007,104.99545 C80.9792406,104.99545 82.0685359,104.466935 82.8174038,103.628012 L83.1170814,103.290049 L110.90198,72.0681026 C111.546363,71.3486732 111.940084,70.3933011 111.940084,69.3459157 C111.940084,68.1327758 111.41186,67.0429004 110.572646,66.2943225 L110.568368,66.2909146 Z" id="对勾" fill="#FFFFFF"></path>
            </g>
        </g>
    </g>
</svg>