<?xml version="1.0" encoding="UTF-8"?>
<svg width="27px" height="25px" viewBox="0 0 27 25" version="1.1" xmlns="http://www.w3.org/2000/svg" xmlns:xlink="http://www.w3.org/1999/xlink">
    <!-- Generator: Sketch 49 (51002) - http://www.bohemiancoding.com/sketch -->
    <title>选择 (2) copy</title>
    <desc>Created with Sketch.</desc>
    <defs></defs>
    <g id="Page-1" stroke="none" stroke-width="1" fill="none" fill-rule="evenodd">
        <g id="咔咔物业-首页-车位租用-选择租用方式" transform="translate(-332.000000, -308.000000)" fill="#25CD81" fill-rule="nonzero">
            <g id="Group-2-Copy" transform="translate(332.492188, 308.000000)">
                <g id="选择-(2)-copy">
                    <path d="M13.2856129,2 C7.60430677,2 3,6.60430677 3,12.2856129 C3,17.9654497 7.60430677,22.5702462 13.2856129,22.5702462 C18.9654497,22.5702462 23.5702462,17.9654497 23.5702462,12.2856129 C23.5702462,6.60430677 18.9654497,2 13.2856129,2 M20.0669374,9.09771447 L12.323709,16.8409429 C12.1346586,17.0299932 11.8873259,17.1240286 11.6395034,17.1240286 C11.3916809,17.1240286 11.1433687,17.0299932 10.9548081,16.8409429 L6.5028191,12.3884641 C6.12471839,12.0103634 6.12471839,11.3976639 6.5028191,11.020053 C6.88091981,10.6414625 7.4936193,10.6414625 7.87172001,11.020053 L11.6395034,14.7878364 L18.6980365,7.72881356 C19.0761372,7.35071285 19.6888367,7.35071285 20.0669374,7.72881356 C20.4450381,8.10691427 20.4450381,8.71961376 20.0669374,9.09771447" id="Shape"></path>
                </g>
            </g>
        </g>
    </g>
</svg>