<?xml version="1.0" encoding="UTF-8"?>
<svg width="25px" height="24px" viewBox="0 0 25 24" version="1.1" xmlns="http://www.w3.org/2000/svg" xmlns:xlink="http://www.w3.org/1999/xlink">
    <!-- Generator: Sketch 49 (51002) - http://www.bohemiancoding.com/sketch -->
    <title>微信 支付</title>
    <desc>Created with Sketch.</desc>
    <defs></defs>
    <g id="Page-1" stroke="none" stroke-width="1" fill="none" fill-rule="evenodd">
        <g id="咔咔物业-首页-电费缴纳成功" transform="translate(-341.000000, -375.000000)" fill="#41B035" fill-rule="nonzero">
            <g id="Group-2" transform="translate(0.000000, 367.000000)">
                <g id="Group" transform="translate(282.000000, 8.169922)">
                    <g id="微信-支付" transform="translate(59.500000, 0.500000)">
                        <path d="M10.249086,12.9734277 C9.11094186,13.6609156 8.94212916,12.5876338 8.94212916,12.5876338 L7.51582802,8.9824213 C6.96692211,7.26918869 7.99075418,8.20999781 7.99075418,8.20999781 C7.99075418,8.20999781 8.86924503,8.92981473 9.53602826,9.3684195 C10.202403,9.80724711 10.9619395,9.49728983 10.9619395,9.49728983 L20.2870076,4.8350993 C18.5663845,2.51612043 15.7244966,1 12.5069722,1 C7.25615616,1 3,5.03494114 3,10.012604 C3,12.8760322 4.40921748,15.4240066 6.6045811,17.0755523 L6.20864836,19.5407265 C6.20864836,19.5407265 6.01552856,20.2603392 6.68444728,19.9265205 C7.1401543,19.6991776 8.30197417,18.8832279 8.99367731,18.3873742 C10.1168,18.8104621 11.307267,19.0266304 12.5074364,19.0254123 C17.7578439,19.0254123 22.0148542,14.9904712 22.0148542,10.0128083 C22.0148542,8.57107614 21.656097,7.20941442 21.0207886,6.00068871 C18.0496033,7.93682613 11.1394054,12.4365918 10.249086,12.9734277 Z" id="Shape"></path>
                    </g>
                </g>
            </g>
        </g>
    </g>
</svg>